<svg id="SvgjsSvg1889" width="360" height="360" xmlns="http://www.w3.org/2000/svg" version="1.1" xmlns:xlink="http://www.w3.org/1999/xlink" xmlns:svgjs="http://svgjs.com/svgjs"><defs id="SvgjsDefs1890"></defs><g id="SvgjsG1891"><svg xmlns="http://www.w3.org/2000/svg" enable-background="new 0 0 1600 1200" viewBox="0 0 1600 1200" width="360" height="360"><g id="Layer_5"><path fill="#a09f92" d="M1126 1011.6c2.3-5.1 6.3-12.1 13.7-17.3 8.7-6.1 12.7-2.9 24.5-7.9 18.5-7.8 23.3-22.4 33.8-19.4 2.9.8 4.6 2.5 10.8 4.3 9.5 2.8 12.3 2.9 14.4 2.2 4.1-1.5 4.6-4.7 6.5-4.3 3.7.7 7.1 15 1.4 25.2-1.9 3.5-5.7 8-14.4 11.5-26.6 10.9-81.2 6.5-90.7 5.7zM1336.9 1037.5c1.5-4.2 4.2-10 9.4-15.1 6.5-6.5 11-6 13.7-11.5 3.2-6.5-1.7-10.1.7-19.4 1.7-6.5 6.5-14 10.8-13.7 5.5.4 5.9 13.1 13 14.4 5.5 1 9.2-5.9 13-4.3 2.3 1 3 4.4 3.6 14.4 1 16.8 1.4 25.4-2.2 30.2-.8 1.1-4.1 5.4-14.4 8.6-19.5 6.1-38.1.3-47.6-3.6z" class="colora09f92 svgShape"></path><path d="M1225.6 214.4c6.4-12.2 13.5-21.4 19.2-27.7 4.9-5.5 10.4-10 21.3-19.2 12.4-10.3 16.5-12.5 21.3-12.1 2.9.3 4.9 1.4 11.4 2.1 3.5.4 6.4.4 9.7.3 8.3-.1 13.5-1.2 18.7-1.1 17.9.4 32 12.9 31.2 14.9-.7 1.8-13.3-2.3-14.2 0-.6 1.6 5.8 3.8 11.4 9.9 8.9 9.9 9.6 23.5 9.9 31.2.3 6.8-.8 4.7-1.4 18.5-.5 10.9.5 24.5-4.3 31.2-.5.7-2.5 3.5-4.3 3.1-1.5-.3-1.7-2.4-2.8-2.4-1.5 0-2.5 4.3-4.3 8.4-1.4 3.1-2.9 5.2-6 9.5-3 4.2-13.6 17.2-19 15.5-8.3-2.6 7.7-35.9-7.6-57.5s-50.6-16-54.6-34.1c-2-8.7 4.9-16.6 2.1-18.5-1.9-1.3-6.2 1.9-25.5 17.7-5.2 4.5-9.3 7.9-12.2 10.3z" fill="#000000" class="color000 svgShape"></path><path fill="#eab394" d="M1245.6 205.1c.7 6.3 1.7 15.3 3.2 26.1 4.1 29.2 7.3 39.1 11.5 47.8 8.6 17.9 16.5 20.4 19.1 21 4.6 1.1 8.7.2 11.5-.6.5 4.1.8 9 .6 14.7-.3 8.7-1.6 10.2-2.5 10.8-3.2 2.3-9.6.9-10.8-2.5-1.3-3.4 2.9-8 3.8-7.6 1.4.6-4.8 11.6 0 17.8 2.3 3 6.1 3.6 7.6 3.8 7.1 1.1 13.1-3.3 19.8-8.3 3.8-2.8 8.9-7.3 14-14-1.8-5-3.7-12.8-1.9-21.7 2.2-10.8 9.3-19.5 8.9-19.8-.4-.3-5.6 5.9-5.1 6.4.8.8 16-11.3 14-15.3-1-2.1-6.4-2-6.4-1.9 0 .1 4.1 1.7 8.2 1.1 5-.8 8.3-4.7 9-5.5 5.9-7.3 4.5-19.8-.6-22.9-1.4-.9-3.1-.9-5.2-2.8s-2.3-3.5-3.7-5.6c-2.2-3.3-5.1-4.5-7.5-6-6.6-4-9.6-9.5-12.7-13.1-4.4-5.1-13.2-11.4-32.8-16-8.1 5-16.1 9.9-24.2 14.9-.5-2.3-1-5.5-.8-9.4.3-4.3 1.3-7.8 2.2-10.1-6.4 6.1-12.8 12.4-19.2 18.7zM1369.2 483.3c.6 2.2 1.9 5.1 4.4 7.4 3.8 3.3 8 3.2 8.4 5.4.3 2.1-3.4 3.1-3.9 6.4-.4 2.7 1.5 4.7 3.4 7.4.7 1 6.8 9.8 6.4 18.2-.2 4.1-2.3 7.3-6.4 13.8-3.3 5.2-7.4 11.6-10.3 10.8-3.8-1-2.8-13.6-4.9-13.8-1.6-.1-3 9-3.9 8.8-1.1-.1 1.5-14-2-29-1.7-7.3-4.3-12.9-6.4-16.7-8.5 4.9-11.1 5.2-11.8 4.4-1.6-1.9 5.1-11.7 14.3-17.7 4.8-3.2 9.5-4.7 12.7-5.4zM1161.5 288.8c4.7-2.3 9.4-4.7 14-7 .3.5 1.7 2.6 4.3 3.3.4.1 3.2.7 5.2-.8.9-.7.7-1.2 1.4-2.3 1.5-2 4-2.4 5-2.6 7.5-1.6 10.6-8.6 18.3-8.1.3 0 5.7.5 6.7 3.3s-3 6.7-5.6 8.6c-6.8 5-12 2-17.3 7-2.4 2.3-1.4 2.9-4.9 7-.3.3-5.6 6.6-9.7 7.6-5 1.1-12.7-5.3-17.4-16zM1176.1 270.2c-1.6-2.2 7-9.4 14.5-17.9.5-.5 1.6-1.8 3.3-2.1 1.7-.3 2.3.5 3.7.5 3.7 0 4.6-6.1 8.6-6.5 2.4-.2 3 1.5 5.4 1.6 4.8.3 6.6-7.4 9.7-7 2.2.3 4.1 4 3.8 7-.1 1.1-.5 1.8-4.1 6.3-5.1 6.2-5.9 6.8-6.7 7.2-2.9 1.6-3.6.4-6.8 2.3-3.3 1.9-3.7 3.7-5.6 3.7-2.6-.1-3.5-3.6-5.4-3.2-2.1.4-1.7 3.9-4.9 5.9-1.2.8-2.1.7-5.4 1.1-8.3.9-9.5 2-10.1 1.1zM1219.4 847.7c-5.9 23.3-8.3 41.7-9.2 54.7 0 0-3.7 48.3-10.8 57-.2.2-.9 1-.7 1.8.5 2 5.7 1.2 6.5 3.7.6 1.9-1.2 3.5-.5 4.6.9 1.4 3.9-.1 8.3 0 5.6.2 10.8 2.9 10.6 3.7-.1.6-3.3.9-3.7 0-.4-.9 2.5-3.2 6-5.5 2.1-10.6 4.4-21.4 6.9-32.3 6.3-27.4 13.3-53.4 20.8-78-.8-1.5-1.5-3.1-2.3-4.6-5.1-1.2-10.7-2.3-16.6-3.2-5.4-.9-10.5-1.5-15.3-1.9zM1357 869.8c2.3 9.4 4.3 19.4 6 30 4.5 29.1 5 55.5 3.7 78 1.7.1 4.2.6 6.9 1.8 4.9 2.4 7.9 6.9 8.8 8.3 1.9 2.9 1.9 4.2 3.2 4.6 2.5.7 5.7-2.9 8.3-6.5.3-15.2.9-30.9 1.8-47.1 1.6-26.2 4-51.2 6.9-74.8-6.5-1.2-16.3-2.1-27.7 0-7.2 1.5-13.3 3.7-17.9 5.7z" class="coloreab394 svgShape"></path><path fill="#00c6ff" d="M1174.5 301.3c-3.4-2.6-9.4-6.3-16.3-5.4-4.7.6-8.3 2.3-19.2 16.7-14.7 19.4-19 23-20 30.1-.5 3.2-1.1 7.7.8 12.5 4.4 10.7 20.2 13.3 34.2 15 17.4 2.1 43.8 4 78.5 1.7 5.6 19.9 10.6 43.1 13.4 69.3 5.4 51.8.1 96.1-6.7 128.6 3.2 2.4 8 5.8 14.2 9.2 34 18.4 69.5 13.7 86 10 19-4.3 39.4-6.1 43.4-18.4 2.8-8.6-2.5-21-5.9-21.1-2.1 0-3.6 4.7-5.5 4.3-2.2-.5-1.7-6.9-3.9-7.5-2.2-.5-4.4 5.2-6.3 4.7-1.5-.4-1.6-4.3-2-8.6-1-12.2-2.4-8.6-4.5-24.8-.6-4.4-.8-7.6-3.4-9.7-2.3-1.9-5.2-1.9-6.7-2-7.1-.3-11.9 5.1-12.6 4.3-.7-.7 3.4-7 10.6-12.6 7.2-5.6 11.2-5.6 15.3-11 2.7-3.5 3.8-7.2 4.3-9.8 3.2-24.7 6.1-49.7 8.6-74.9.3-2.6.5-5.2.8-7.8 14.2 16.2 23.9 25.9 31 32.2 2.2 2 7.9 6.9 6.7 10.6-.7 2.3-3.7 2.9-6.3 3.9-8.1 3.1-9.7 9.1-23.5 27.5-2.4 3.1-6 7.8-10.6 13.3.9 2.1 2.7 5.6 6.3 8.6 1.6 1.3 2.9 2.4 4.7 2.7 5 .9 9.6-5.1 13.3-9 1.6-1.7 8.8-6.1 23.1-14.9 23.5-14.4 28.8-14.9 34.1-23.1 4.1-6.3 5.4-12.7 5.9-16.9-3.3-6.6-8.4-16.3-15.7-27.5-9.5-14.6-27.7-42.2-59.2-64.7-13.5-9.7-27.4-16.9-31.8-19.2-8.9-4.6-16.7-8.1-22.8-10.6-1.8 3.2-4.6 7.9-8.2 13.3-7 10.4-10.6 15.7-16 18.7-1.6.9-12.8 6.9-21.6 1.5-.8-.5-6.3-3.9-6.9-9.3-.8-8.2 10.1-13.6 8-17.5-.9-1.7-4-2.5-6.3-1.6-2.4 1.1-3.1 3.6-3.1 3.9-2.8-.1-7-.2-12.2 0-23.5.8-36.9 5.9-58.8 10.2-8.3 1.6-20.2 3.6-34.9 4.7 4.2-8.8 8.4-17.5 12.6-26.3" class="colorff4f03 svgShape"></path><path fill="#ff6699" d="M1224 248.1c-1 .9-2.6 2.6-3.6 5.2-.7 1.8-1 2.7-.7 3.3 1.1 1.6 7.4-1.4 15.6-4.6 16.1-6.2 18.7-4.9 22.4-9.1 4.4-4.9 1.9-7.9 5.5-16.3 1.8-4.2 8.8-18.1 23.1-21.5 9.3-2.2 21.8.2 28 8.5 6 8.1 4.5 19.7 3.6 27-.9 7-2.9 12-2 12.4 1.1.5 5.1-5.5 7.5-11.4 2.2-5.6 6.3-15.4 2-25.7-3.8-9.1-12-13.1-14.3-14.3-12.9-6.4-25.5-1.6-28-.7-10.8 4.1-16.4 12.2-18.5 15.3-2.2 3.3-4.1 8.8-6.2 14-1.3 3.2-2.3 5.9-2.9 7.8-10.5 3.3-21 6.7-31.5 10.1z" class="colorfff svgShape"></path><path fill="#cec2bc" d="M1177.8 281.3c.9-3 2.8-7.4 6.8-10.4 4.1-3.1 6.8-2.1 16.4-5.2 3.9-1.3 8.9-2.9 14.4-6.4 4.2-2.7 7.2-5.5 9.2-7.6 6.2-.2 15.4-1.3 25.2-6 3.9-1.9 7.3-4 10-6 .1-3.5.6-9.5 3.6-16 1.3-2.7 5.3-11.2 14.8-16.8 3.7-2.2 13.4-7.9 24.8-4.4 1.2.4 11.3 3.7 16 13.6 3.1 6.5 2.2 12.3.8 22-1.2 8.1-1.9 12.8-5.6 17.6-6.3 8.1-15.8 9.7-17.6 10-11.7 2-22-5.6-28.8-10.4-1.4-1-2.5-1.8-3.2-2.4-23.4 5.3-37.9 10.9-46.9 15.2-9.7 4.7-21 6.4-29.6 12.8-1.3 1-6.2 4.8-8.8 3.2-1-.6-1.4-1.9-1.5-2.8z" class="colorcec2bc svgShape"></path><path fill="#e8e1dd" d="M1295.5 205.7c2 .5 10.9 2.9 16.8 11.9 1 1.6 5.9 9.3 4.3 19.7-.3 2.3-1.6 10.8-8.7 16.5-8.7 7-23.4 7.7-32.7-.9-11-10.1-6.6-25.9-6.4-26.6 2.9-9.6 10.4-14.5 12.7-15.9 5.6-3.6 11-4.4 14-4.7z" class="colore8e1dd svgShape"></path><path stroke="#000" stroke-miterlimit="10" d="M1329.5 275.1c.1.1 0 .5-.4 1.1-.3.7-.9 1.7-1.7 2.9-1.6 2.4-4.3 5.8-8.2 9.4-2 1.7-4.3 3.6-6.9 5.2-2.6 1.7-5.6 3.2-8.9 4.6-3.3 1.3-6.8 2.4-10.6 3.2-3.8.8-8 .8-12.1.1-4.1-.8-7.9-2.2-11.3-4.3-3.4-2-6.2-4.4-8.7-7-4.9-5.1-8.2-10.6-10.5-15.3-2.3-4.8-3.6-8.8-4.3-11.6-.7-2.8-.9-4.5-.7-4.5.2-.1.8 1.4 1.9 4.1 1.1 2.7 2.7 6.5 5.2 11 2.5 4.4 5.8 9.6 10.5 14.3 4.7 4.7 11 8.8 18.4 10.1 3.7.6 7.4.6 10.9 0 3.5-.7 6.9-1.6 10.1-2.8 3.1-1.2 6-2.6 8.6-4.1 2.6-1.5 4.8-3.1 6.8-4.7 4-3.2 6.8-6.2 8.7-8.4 1-1.1 1.7-1.9 2.2-2.5.6-.6.9-.9 1-.8zM1241.7 244.8c-.8.2-3.3-7.8-3.9-18-.6-10.2 1-18.4 1.9-18.3.9.1.8 8.2 1.4 18.1.5 10 1.6 18 .6 18.2z" class="colorStroke000 svgStroke"></path><path stroke="#000" stroke-miterlimit="10" d="M1323.9 313c-.4.1-1.2-1.5-2-4.2-.7-2.7-1.2-6.7-1.1-11 .2-4.3 1-8.2 1.9-10.9.9-2.7 1.8-4.2 2.2-4.1.9.3-.6 6.9-.8 15.1-.3 8.1.7 14.8-.2 15.1zM1287.5 329.6c-.9-.2-.5-6-1-13s-1.9-12.7-1-13c.4-.1 1.3 1.1 2.2 3.4.9 2.3 1.7 5.6 2 9.4.3 3.8 0 7.2-.6 9.6-.4 2.3-1.1 3.7-1.6 3.6zM1332.1 260.4c.2-.2.8.4 1.9 1 1.1.6 3 1.2 5.2 1.1 2.2-.2 5-1.1 7.1-3.1 1-1 1.9-2.4 2.6-3.8.7-1.5 1.2-3.2 1.5-4.9 1-7 .3-14.8-3.5-16.7-.9-.5-1.9-.6-2.8-.6-.9 0-1.6.3-2.1.6-1.1.6-1.4 1.4-1.6 1.3-.1 0-.1-.2-.1-.7.1-.4.3-1 .9-1.6 1.1-1.2 3.6-2.1 6.5-1.1.7.2 1.5.7 2.1 1.2.6.5 1.2 1.2 1.6 1.9 1 1.4 1.5 3.1 1.9 4.9.4 1.8.5 3.6.6 5.5 0 1.9 0 3.9-.4 5.9-.4 2-.9 4-1.8 5.8-.9 1.8-2 3.4-3.5 4.6-2.9 2.5-6.3 3.3-9.1 3.2-2.8-.1-4.9-1.3-6-2.3-.5-.6-.9-1-1-1.4-.1-.5-.1-.7 0-.8z" class="colorStroke000 svgStroke"></path><path stroke="#000" stroke-miterlimit="10" d="M1337.7 252.7c-.3.2-1.3-.4-2-2-.4-.8-.6-1.8-.6-3 0-1.1.2-2.4.7-3.7.5-1.2 1.2-2.3 2-3.1.8-.8 1.7-1.4 2.5-1.8 1.6-.7 2.7-.5 2.8-.1.1.5-.6 1.1-1.5 2-.5.5-.9 1.1-1.4 1.8-.5.7-.9 1.5-1.3 2.4-.3.9-.6 1.8-.7 2.6-.1.8-.2 1.6-.1 2.3-.2 1.4 0 2.3-.4 2.6z" class="colorStroke000 svgStroke"></path><path stroke="#000" stroke-miterlimit="10" d="M1343.4 255.8c-.4-.2-.4-1-.6-2-.2-1-.6-2.3-1.5-3.4-.4-.6-.9-1-1.4-1.4-.3-.2-.4-.3-.6-.5-.2-.1-.3-.2-.5-.2 0 0 0-.1-.1-.1-.1-.1-.3-.1-.4-.1-.1 0-.2-.1-.3-.1H1337.7c-.1.1-.2.2-.3.2h-.4c-.1-.1-.3-.4-.2-.8.2-.7.8-1.3 1.8-1.5.2 0 .5-.1.8 0h.5c.4.1 1 .3 1.4.5.9.4 1.8 1.2 2.5 2.1.7.9 1.1 2 1.3 3 .2 1 .1 1.9-.1 2.6-.4 1.4-1.3 2-1.6 1.7zM1341 314.9c-.5.8-4.8-1-9.7-4-1.2-.7-2.4-1.6-3.2-2.1-.4-.2-.8-.4-1.1-.5H1326.4c-.4.2-.7.7-.8 1-.1.4.1.6-.1.7-.2.1-.7.2-1.2-.4-.4-.6-.6-1.9.4-3 1.2-1.3 3.2-1.1 4.5-.6 1.4.6 2.4 1.3 3.7 2 5.1 3 8.6 6.1 8.1 6.9zM1461.3 438.3c-.5.2-4.5-8.4-12.3-21.6-7.8-13.2-19.7-30.7-35.4-48-7.8-8.7-15.8-16.4-23.4-23.1-7.6-6.7-14.8-12.3-20.9-16.9-3.1-2.3-5.9-4.2-8.5-5.8-2.6-1.6-4.9-2.7-6.8-3.6-3.9-1.7-6.2-2.2-6.2-2.5 0-.2 2.5-.1 6.6 1.3 2.1.7 4.5 1.8 7.3 3.2 2.7 1.5 5.7 3.3 8.9 5.5 6.3 4.4 13.8 9.8 21.5 16.5 7.8 6.7 15.9 14.4 23.8 23.2 15.9 17.5 27.6 35.5 35 49.1 1.8 3.4 3.5 6.5 4.8 9.3 1.3 2.8 2.5 5.1 3.3 7.1 1.7 3.9 2.5 6.2 2.3 6.3zM1371.7 393.3c-.3.9-5.8-.6-12.5-1.4-3.4-.4-6.4-.7-8.7-.9-1.3-.1-2.4-.5-3-1.2-.5-.7-.3-1.3-.1-1.3.2-.1.4.2.9.3.4.1 1.2.1 2.2-.1 2.3-.4 5.6-.5 9.2 0 3.6.5 6.7 1.4 8.9 2.4 2.1.9 3.3 1.8 3.1 2.2z" class="colorStroke000 svgStroke"></path><path stroke="#000" stroke-miterlimit="10" d="M1408.8 435.6c-.8.6-9.3-10.1-20.8-22.2s-21.7-21.2-21.1-21.9c.5-.7 11.8 7.3 23.5 19.6s19.1 24 18.4 24.5zM1361.2 486.9c-.2-.4 3.7-2.7 8.4-8.4 2.3-2.8 4.9-6.3 8-10.2 3-3.9 6.3-8.1 9.9-12.5 3.5-4.4 7-8.7 10.6-12.1 3.6-3.5 7.6-6 11.2-7.4 3.6-1.4 6.7-1.7 8.9-1.7 2.1 0 3.3.3 3.3.5s-1.2.4-3.2.7c-2 .4-4.9 1-8 2.6-3.2 1.5-6.7 4.1-10 7.4-3.4 3.4-6.6 7.6-10.2 12-3.5 4.4-6.9 8.6-10.1 12.3-3.1 3.8-5.9 7.2-8.6 9.9-2.6 2.7-5.1 4.6-7 5.6-2 1.1-3.1 1.4-3.2 1.3zM1379.6 501.5c-.2-.1.5-1.4 1.9-3.4 1.5-2 3.9-4.8 7.2-7.8 3.4-3 7.7-6.1 12.8-9.2 5.1-3 10.8-6 16.9-9 6-3 11.7-5.9 16.6-8.9 4.9-3 9.1-6 12.4-8.9 6.6-5.7 9.4-10.4 9.9-10.1.2.1-.3 1.4-1.6 3.6s-3.5 5.1-6.7 8.3c-3.2 3.2-7.4 6.5-12.4 9.8-5 3.2-10.7 6.3-16.7 9.3-6 3-11.8 5.8-16.8 8.7-5 2.8-9.4 5.7-12.8 8.3-7 5.2-10.3 9.7-10.7 9.3z" class="colorStroke000 svgStroke"></path><path stroke="#000" stroke-miterlimit="10" d="M1354.2 501.6c.2.4-2.9 2.1-7.9 4.5-1.3.6-2.7 1.2-4.2 1.9-.8.3-1.5.7-2.3 1l-2.7 1.2c-1.5.7-3 .8-4.2.5-.6-.2-1.2-.5-1.6-1-.4-.5-.6-1.3-.5-1.8.1-.6.2-1.1.9-1.8.6-.6 1.1-1.3 1.7-1.9l.2-.2.1-.1.3-.3.6-.6c.4-.4.8-.7 1.2-1.1 6.3-5.9 12.8-10.3 17.7-13.1 4.9-2.8 8.2-4 8.4-3.6.5.8-11.6 7.6-24 19-.4.4-.8.7-1.1 1.1-.3.3-.7.6-1 1-.2.2-.4.3-.6.6-.1.1-.1.3 0 .4.1.1.2.1.3.2.2 0 .5 0 .8-.1 1.7-.6 3.2-1.2 4.7-1.8 1.5-.6 3-1.1 4.3-1.5 5.3-2 8.7-2.9 8.9-2.5zM1387.8 538.3c-.5-.1-.5-2.1-.8-5.2-.1-1.6-.4-3.4-.7-5.5-.4-2-.9-4.2-1.6-6.5-.7-2.3-1.6-4.4-2.4-6.3-.9-1.9-1.7-3.5-2.5-4.9-1.6-2.7-2.7-4.4-2.3-4.8.3-.3 2 .9 4.2 3.5 1.1 1.3 2.2 2.9 3.3 4.9 1.1 1.9 2 4.2 2.8 6.6.7 2.5 1.2 4.9 1.4 7.1.2 2.2.2 4.2 0 5.9-.2 3.3-1 5.2-1.4 5.2zM1360 551.7c-.9 0-1.8-10.4-4.4-22.8-2.6-12.5-5.9-22.3-5.1-22.7.4-.2 1.8 2.1 3.4 6.1 1.6 3.9 3.5 9.6 4.8 16 1.3 6.4 1.9 12.3 1.9 16.6.2 4.1-.2 6.8-.6 6.8z" class="colorStroke000 svgStroke"></path><path stroke="#000" stroke-miterlimit="10" d="M1367.7 522.9c.9-.1 2.2 6.9 1.3 15.6-.5 4.4-2.1 8.5-4.5 10.6-1.2 1.1-2.4 1.6-3.2 1.8-.9.2-1.3.1-1.4-.1-.1-.5 1.5-1.1 2.9-3.2 1.5-2 2.5-5.4 3-9.5.9-8.2 1-15.1 1.9-15.2z" class="colorStroke000 svgStroke"></path><path stroke="#000" stroke-miterlimit="10" d="M1380.4 527.6c.4-.1 1.3 2.1 1.3 5.7.1 3.6-.9 8.7-3.8 13.6-.3.6-.7 1.2-1.1 1.8-.4.5-.8 1.1-1.2 1.6-.4.5-.8 1-1.3 1.5l-.7.7c-.3.3-.7.7-1.1.9-.8.5-1.6.8-2.4.6-.8-.1-1.5-.7-1.8-1.4-.2-.3-.3-.7-.4-1.1-.1-.4-.2-.8-.2-1-.1-.5-.2-.9-.3-1.3-.6-3.4-.8-5.6-.3-5.7.4-.1 1.4 1.9 2.6 5.1.1.4.3.8.5 1.3.1.3.1.3.2.4l.1.2c.1.2.2.3.4.3s.3-.2.5-.3c.2-.3.5-.5.7-.8.4-.4.7-.9 1.1-1.4.4-.5.7-1 1-1.5.3-.5.7-1 1-1.6 2.6-4.3 3.8-8.8 4.3-12.1.4-3.2.4-5.4.9-5.5z" class="colorStroke000 svgStroke"></path><path stroke="#000" stroke-miterlimit="10" d="M1370.8 553.1c-.9-.4.8-5.7 1.8-12.4s.9-12.3 1.8-12.4c.4-.1 1 1.3 1.4 3.7.4 2.3.5 5.6 0 9.2-.5 3.6-1.6 6.7-2.6 8.8-1.1 2.2-2 3.3-2.4 3.1zM1379.1 544.8c-.4-.8 2.3-3 4.6-6.5 2.4-3.4 3.4-6.8 4.3-6.7.4.1.7 1.1.6 2.7-.1 1.6-.8 3.8-2.2 5.8-1.4 2.1-3.2 3.5-4.6 4.2-1.5.8-2.5.9-2.7.5z" class="colorStroke000 svgStroke"></path><ellipse cx="1366.3" cy="442.7" stroke="#000" stroke-miterlimit="10" rx="37.7" ry="1.6" transform="rotate(96.453 1366.256 442.632)" class="colorStroke000 svgStroke"></ellipse><path stroke="#000" stroke-miterlimit="10" d="M1236.2 418.5c-.9.1-3-10.3-5.6-23.2-2.6-12.9-4.8-23.3-3.9-23.6.8-.2 4.5 9.9 7.1 22.9 2.7 13 3.3 23.8 2.4 23.9zM1238.1 551.2c-.5-.1.1-6.5.6-17 .1-2.6.3-5.5.3-8.6.1-3.1.1-6.4.2-9.8 0-6.9 0-14.5-.3-22.5-.5-16-1.5-30.4-2.1-40.9-.6-10.5-.8-17-.3-17 .4 0 1.4 6.4 2.6 16.8 1.2 10.4 2.5 24.9 3.1 41 .3 8 .2 15.7 0 22.7-.1 3.5-.3 6.8-.5 9.9-.2 3.1-.5 6-.7 8.6-1.1 10.4-2.5 16.8-2.9 16.8zM1374.2 577.3c.1.2-1.7 1.3-5 3.2-1.6 1-3.8 1.9-6.2 3.1-2.4 1.2-5.4 2.3-8.6 3.5-1.6.7-3.3 1.1-5.1 1.7-1.8.5-3.6 1.2-5.6 1.6-2 .5-4 1-6.1 1.5-2.1.4-4.3.8-6.5 1.2-9 1.4-19 2.1-29.4 1.6-10.5-.6-20.4-2.3-29.1-4.8-2.2-.7-4.3-1.2-6.3-1.9s-4-1.5-5.9-2.1c-1.9-.7-3.6-1.6-5.4-2.3-1.7-.7-3.4-1.5-4.9-2.3-3.1-1.6-5.7-3.2-7.9-4.9-2.2-1.7-3.9-3.4-5-5-2.4-3.1-2.9-5.3-2.7-5.4.2-.1 1.1 1.8 3.7 4.5 2.5 2.7 6.9 5.9 13 8.7 1.5.7 3.2 1.4 4.9 2 1.7.7 3.5 1.4 5.3 2.1 1.9.6 3.8 1.3 5.8 2 2 .6 4.1 1.2 6.2 1.8 8.6 2.2 18.3 3.9 28.5 4.4 10.2.6 20 0 28.8-1.3 2.2-.4 4.3-.7 6.4-1 2.1-.4 4.1-.9 6-1.3 1.9-.4 3.8-1 5.5-1.4 1.8-.5 3.5-.9 5.1-1.5 12.8-4.2 20.2-8.2 20.5-7.7zM1210.5 809.2c-.2 0-.1-3.3.3-9.2.4-5.9 1-14.4 1.9-24.9 1.8-21 4.6-50 8.2-81.9 3.6-32 7.2-60.8 10.1-81.7 1.4-10.4 2.7-18.9 3.6-24.7.9-5.8 1.6-9 1.8-9 .2 0 0 3.3-.5 9.2-.5 5.9-1.4 14.3-2.6 24.8-2.3 20.9-5.6 49.9-9.1 81.8-3.6 31.9-6.8 60.9-9.2 81.8-1.2 10.5-2.2 18.9-3 24.8-.7 5.8-1.2 9-1.5 9zM1304.8 634.7c-.8.5-4.8-4.2-10-9.7-5.2-5.5-9.6-9.9-9.1-10.6.5-.7 6.1 2.6 11.5 8.4 5.4 5.7 8.3 11.4 7.6 11.9z" class="colorStroke000 svgStroke"></path><ellipse cx="1320.7" cy="722.9" stroke="#000" stroke-miterlimit="10" rx="91.6" ry="1.6" transform="rotate(78.171 1320.59 722.801)" class="colorStroke000 svgStroke"></ellipse><path stroke="#000" stroke-miterlimit="10" d="M1376.6 574.4c0-.2.4-.4 1-.6.6-.3 1.3-.7 2-1.5s1.4-1.9 1.6-3.3c.3-1.3.2-3-.2-4.8-.4-1.8-.9-3.5-1.4-5.2-.4-1.6-.8-3.1-1-4.4-.5-2.5-.6-4.2-.2-4.3s1.3 1.3 2.4 3.6c.5 1.2 1.1 2.6 1.7 4.2.6 1.6 1.3 3.4 1.7 5.4.4 2.1.5 4.2-.1 6.2s-1.8 3.4-3.1 4.3c-1.2.9-2.5 1.1-3.4 1-.6-.1-1-.4-1-.6z" class="colorStroke000 svgStroke"></path><ellipse cx="1385.4" cy="684.8" stroke="#000" stroke-miterlimit="10" rx="97.9" ry="1.6" transform="rotate(85.19 1385.364 684.819) scale(1.00002)" class="colorStroke000 svgStroke"></ellipse><path stroke="#000" stroke-miterlimit="10" d="M1346.8 858.4c-.1.2-.9 0-2.2-.7-1.3-.7-3.1-1.8-5.2-3.5-.5-.4-1.1-.9-1.6-1.8-.3-.5-.4-1.1-.4-1.7 0-.6.2-1 .3-1.5.3-.8.5-1.4.7-2.1.2-.7.3-1.4.3-2.2.1-1.5-.2-2.9-.8-4.6-.3-.9-.6-1.8-.8-2.9-.2-1-.3-2.1-.4-3.1-.1-2-.1-3.9-.1-5.8v-5.3c0-3.4 0-6.4.1-9 .2-5.1.5-8.3 1-8.3s.9 3.2 1.4 8.3c.2 2.6.4 5.6.6 9 .1 1.7.1 3.5.2 5.3.1 1.8.1 3.8.2 5.6.1.9.1 1.8.3 2.7.1.8.4 1.7.7 2.6.3.9.5 1.9.7 2.9.1 1 .1 2 0 2.9-.1.9-.3 1.9-.6 2.7-.2.8-.7 1.7-.9 2.3-.1.3-.2.5-.2.7v.4c.1.3.5.8.9 1.2 3.4 3.7 6.1 5.5 5.8 5.9zM1408.5 845.7c-.1-.2.7-.7 1.2-2.1.3-.7.4-1.5.3-2.5-.1-1-.6-1.9-1.5-2.5-.5-.3-1.2-.7-2-1.4-.4-.4-.8-1-.9-1.6-.1-.6-.2-1.5.4-2.3l.1-.2.1-.1.1-.1.1-.1c.2-.1.3-.2.5-.3l.2-.1c.1-.1.2-.2.2-.4s-.1-.2-.1-.5c-.1-.4-.3-.9-.4-1.4-1.1-3.7-2.3-7.7-3.6-12-4.9-17.1-8.1-31.1-7.3-31.4s5.5 13.4 10.4 30.5c1.2 4.3 2.3 8.4 3.3 12.1.1.5.2.9.4 1.4.2.7.4 1.5.3 2.2-.1.7-.6 1.3-1.2 1.6-.3.2-.7.3-1 .4-.1 0 0 .1-.1 0l-.1-.1c-.1 0 .1-.1 0-.1h-.1H1408.1v.2c0 .2.1.3.2.5.3.4.9.8 1.6 1.3.7.6 1.2 1.3 1.5 2.1.3.8.4 1.5.4 2.2 0 1.4-.5 2.5-1 3.2-.5.8-1.1 1.2-1.6 1.4-.4.2-.6.2-.7.1zM1403.9 852.6c.1.4-2.8 1.2-7.6 1.4-2.4.1-5.2.1-8.3.1-3.1 0-6.5-.2-9.9 0-3.5.1-6.7.5-9.7 1.1-2.9.6-5.5 1.5-7.8 2.2-4.4 1.4-7.2 2.3-7.4 1.9-.2-.4 2.3-2 6.6-4 2.2-1 4.8-2.1 7.9-2.9 3.1-.9 6.6-1.3 10.3-1.5 3.7-.1 7.1.1 10.2.3 3.1.2 5.8.5 8.2.6 4.5.3 7.4.4 7.5.8zM1351.4 872.9c-.8.4-2.4-1.4-2.8-4.1-.4-2.7.5-4.8 1.4-4.7.9.1 1.5 2 1.8 4.2.4 2.3.4 4.3-.4 4.6zM1404 864.9c0 .5-3 .6-7.8.6s-11.4-.1-18.5.5c-3.6.3-7 .8-10 1.3-1.5.3-3 .6-4.3 1-.7.2-1.3.3-1.9.5l-1.8.6c-4.5 1.4-7.2 2.7-7.4 2.3-.2-.3 2.1-2.4 6.6-4.4.6-.2 1.2-.5 1.8-.8.6-.2 1.3-.5 2-.7 1.4-.5 2.9-.9 4.4-1.3 3.2-.8 6.7-1.3 10.4-1.6 7.4-.6 14.1-.1 18.9.5 4.7.4 7.7 1.1 7.6 1.5z" class="colorStroke000 svgStroke"></path><ellipse cx="1405.9" cy="861.1" stroke="#000" stroke-miterlimit="10" rx="1.6" ry="3.7" class="colorStroke000 svgStroke"></ellipse><ellipse cx="1284.6" cy="711" stroke="#000" stroke-miterlimit="10" rx="61.9" ry="1.6" transform="rotate(102.826 1284.554 710.912)" class="colorStroke000 svgStroke"></ellipse><path stroke="#000" stroke-miterlimit="10" d="M1264 803.7c-.8-.5 3.2-9 6.6-20 3.5-11 5.1-20.2 6-20.1.4.1.6 2.5.2 6.3-.4 3.9-1.4 9.1-3.1 14.8-1.8 5.6-4 10.5-5.9 13.9-1.9 3.4-3.5 5.3-3.8 5.1z" class="colorStroke000 svgStroke"></path><path stroke="#000" stroke-miterlimit="10" d="M1265.5 827.2c-.9-.2.3-7.9 1.5-17.4 1.2-9.5 2-17.3 3-17.2.9 0 1.5 8 .3 17.7-1.3 9.6-4 17.2-4.8 16.9zM1207.5 836.5c-.4.2-1.5-.7-2.6-2.7-.5-1-1-2.3-1.3-3.8-.3-1.5-.5-3.2-.4-4.9.1-1.7.5-3.4 1-4.8s1.2-2.6 1.8-3.6c1.3-1.9 2.6-2.6 2.9-2.4.4.3-.2 1.5-.8 3.4-.3.9-.7 2.1-1 3.4-.3 1.3-.5 2.7-.6 4.2-.1 1.5 0 2.9.1 4.2.1 1.3.3 2.5.5 3.4.4 2.1.8 3.3.4 3.6zM1260.7 846.2c-.4.3-2-2.2-6.1-4.1-2-.9-4.6-1.7-7.5-2.3-3-.6-6.3-1.2-9.8-1.6-14-1.9-25.6-1.1-25.7-2.1 0-.4 2.8-1.2 7.6-1.6 4.7-.4 11.4-.5 18.6.5 3.6.5 7 1.1 10.1 1.9 3.1.8 5.8 1.9 8 3.2 2.1 1.3 3.5 2.8 4.3 4 .5 1.2.6 2 .5 2.1zM1255 854.1c-.4.9-10.9-3-24.3-5.1-13.5-2.2-24.6-1.8-24.7-2.8 0-.4 2.8-1.1 7.3-1.4 2.3-.2 5-.2 8.1-.1 3 .2 6.4.5 9.8 1 3.5.6 6.7 1.3 9.7 2.1 2.9.8 5.5 1.7 7.6 2.6 4.2 1.8 6.7 3.3 6.5 3.7z" class="colorStroke000 svgStroke"></path><ellipse cx="1263.9" cy="834.4" stroke="#000" stroke-miterlimit="10" rx="6.1" ry="1.6" transform="rotate(88.5 1263.926 834.434) scale(1.00004)" class="colorStroke000 svgStroke"></ellipse><ellipse cx="1204.8" cy="900.6" stroke="#000" stroke-miterlimit="10" rx="48.4" ry="1.6" transform="rotate(98.32 1204.789 900.615)" class="colorStroke000 svgStroke"></ellipse><path stroke="#000" stroke-miterlimit="10" d="M1229.5 949.3c-.4-.1.2-5.1 1.8-13.1 1.5-8 4-19 7.1-31.1 3.1-12 6.3-22.8 8.9-30.6 2.6-7.7 4.4-12.5 4.8-12.3.9.3-4.3 19.7-10.6 43.7-6.1 24.1-11.1 43.6-12 43.4zM1363.6 980.6c-.5 0-1.2-5.8-2.3-15.3-1.1-9.5-2.5-22.6-4.3-37-1.8-14.5-3.6-27.5-4.8-37-1.3-9.5-1.9-15.4-1.5-15.4.4-.1 1.9 5.7 3.7 15.1 1.8 9.4 4 22.5 5.8 37 1.8 14.5 2.9 27.7 3.4 37.3.5 9.3.5 15.3 0 15.3zM1394.6 985c-.4 0-.8-6.5-.7-17.1 0-10.5.5-25.1 1.7-41.2 1.2-16 2.8-30.5 4.3-41 1.5-10.4 2.8-16.8 3.2-16.8.5.1 0 6.6-.9 17-.9 10.5-2.2 24.9-3.4 40.9-1.2 16-2 30.5-2.6 41-.7 10.7-1.2 17.2-1.6 17.2zM1401.2 992.8c-.2 0-.2-.6-.5-1.4-.3-.8-1.1-1.9-2.5-2.7-.7-.4-1.6-.7-2.5-.7-.5 0-.9 0-1.4.1-.5.1-1 .3-1.5.5-1 .4-2 1.1-2.9 2l-.7.7c-.2.3-.4.4-.8 1-.7.9-1.5 2.1-2.3 3.2-.9-1.1-1.8-2.3-2.7-3.4-.3-.4-.6-.7-.9-1.1-.3-.3-.6-.6-.9-1-1.2-1.3-2.4-2.6-3.7-3.9-1.5-1.5-3.1-2.9-4.6-4.1-.7-.6-1.5-1.1-2.1-1.3-.6-.2-1.2-.2-1.9 0-1.3.4-2.5 1.6-3.3 2.8-.9 1.2-1.7 2.6-2.3 3.8-2.6 4.9-3.4 8.4-3.9 8.3-.2 0-.3-1 0-2.6.2-1.6.8-3.9 1.9-6.7.6-1.4 1.2-2.8 2.2-4.4 1-1.5 2.3-3.2 4.6-4.1 1.2-.4 2.6-.5 3.8-.1 1.2.4 2.2 1.1 3.1 1.8 1.7 1.3 3.3 2.7 4.9 4.3 1.4 1.3 2.7 2.7 3.9 4.1.3.3.6.7.9 1l.4.5.3.4c.1.2.3.4.4.6.1-.2.2-.3.4-.5s.4-.4.6-.7c.3-.3.6-.5.9-.8 1.2-1 2.5-1.8 3.9-2.3.7-.2 1.4-.4 2.1-.5.7-.1 1.4 0 2 .1 1.3.2 2.4.8 3.2 1.4 1.7 1.3 2.4 3 2.5 4.1-.1 1.1-.4 1.6-.6 1.6z" class="colorStroke000 svgStroke"></path><path stroke="#000" stroke-miterlimit="10" d="M1335.8 1025.6s.1-.1.2 0c.1.2 0 .5-.2.6-.1.1-.2.2-.5.2-.1 0-.3 0-.4-.2l-.1-.1-.1-.1c-.2-.5 0-.9.2-1.3s.4-.6.7-.9c.2-.3.5-.6.8-.9.6-.6 1.2-1.3 2-2.1 3.1-3 7.9-6.6 13.8-9.4.4-.2.7-.3 1-.5l.4-.2c.1-.4.1-.8.2-1.2l.3-2.1c.2-1.4.6-2.7.9-3.9.7-2.5 1.5-4.6 2.2-6.3 1.6-3.5 3-5.3 3.4-5.1.4.2-.3 2.4-1.3 5.9-.5 1.8-1 3.9-1.5 6.2-.2 1.2-.4 2.4-.6 3.7-.1.7-.2 1.3-.2 2l-.3 3c-.6.3-1.2.6-1.9.8-.4.2-.8.4-1.3.6-5.6 2.7-10.4 5.9-13.7 8.3-.8.6-1.6 1.2-2.3 1.6-.3.2-.6.5-.9.7-.3.2-.5.4-.7.5-.2.1-.2.2-.3.2.2 0-.2.1-.2 0 0 0 0 .1 0 0v-.1c0-.2 0 0 .1-.1h.2s.1 0 0 0c.1.3.1.3.1.2 0 .1 0 0 0 0zM1383.4 1039.1c.1.4-3 2-8.5 3.4-2.7.7-6 1.4-9.8 1.8-3.7.4-7.8.5-12.2.3-4.3-.3-8.4-.9-12-1.7-1.8-.4-3.5-.9-5.1-1.4-.8-.3-1.5-.5-2.3-.8-.7-.2-1.5-.6-2.2-.9-2.7-1.3-4.5-3.3-4.9-5.1-.2-.9 0-1.6.2-2 .2-.4.4-.6.5-.5.3.1-.1 1 .5 2.2.6 1.2 2.2 2.5 4.6 3.4 1.1.5 2.7.7 4.2 1.1 1.6.3 3.2.7 5 1 3.5.6 7.5 1.2 11.6 1.4 4.1.2 8.1.2 11.7 0 3.6-.2 6.8-.6 9.5-1 5.7-.9 9-1.7 9.2-1.2z" class="colorStroke000 svgStroke"></path><ellipse cx="1362" cy="1014.4" stroke="#000" stroke-miterlimit="10" rx="10.2" ry="1.6" transform="rotate(9.921 1361.744 1014.232)" class="colorStroke000 svgStroke"></ellipse><path stroke="#000" stroke-miterlimit="10" d="M1386.9 1043.1c0-.2.7-.5 1.8-.9 1.1-.5 2.6-1.3 4.2-2.7 1.6-1.4 3.1-3.4 4.2-5.9 1.1-2.5 1.8-5.6 2.1-8.9.3-3.3.3-6.6.4-9.6.1-3 .2-5.7.4-7.9.3-4.5.7-7.3 1.2-7.3s.9 2.8 1.1 7.3c.1 2.3.3 5 .3 8 .1 3 .2 6.3-.1 9.9-.3 3.6-1.1 7-2.6 9.9-1.5 2.9-3.5 5.1-5.5 6.5-2 1.4-4 2-5.3 2.1-1.5 0-2.2-.3-2.2-.5z" class="colorStroke000 svgStroke"></path><ellipse cx="1196.6" cy="956.9" stroke="#000" stroke-miterlimit="10" rx="3.5" ry="1.6" transform="rotate(99.207 1196.608 956.903)" class="colorStroke000 svgStroke"></ellipse><path stroke="#000" stroke-miterlimit="10" d="M1203.4 970.6c-.2-.2 0-.6.1-1.4.1-.7 0-1.8-.6-2.9-.6-1.1-1.8-2.3-3.3-2.8-1.5-.5-3.6-.6-5.6-.1-2.1.5-4.1 1.3-5.9 2.2-1.8.9-3.5 1.7-5.1 2.2-3.1 1.1-5.2 1-5.2.5-.1-.5 1.7-1.1 4.3-2.6 1.3-.8 2.8-1.7 4.7-2.8 1.8-1 4-2.1 6.5-2.7 2.5-.6 5.2-.5 7.5.5 2.3 1.1 3.7 3 4.2 4.7.6 1.8.2 3.4-.3 4.3-.6.8-1.1 1-1.3.9zM1231 998.8c-.5 0-.8-3.5-1-9-.1-2.8-.1-6.1-.1-9.8V974.3c0-.9-.2-1.8-.4-2.5-.1-.4-.3-.7-.5-1-.2-.3-.4-.4-.7-.6-.6-.3-1.4-.5-1.9-.4-.3 0-.5.1-.6.2-.1.1-.2.2-.3.6-.1.3-.2.7-.3 1.2-.1.5-.1.9-.3 1.6-.2.8-.5 1.6-1 2.1-.5.6-1.3.8-2 .9-.6 0-1.1-.1-1.6-.3-.3-.1-.5-.3-.7-.4-.2-.2-.5-.4-.6-.5-.6-.6-.9-.9-1.4-1.3-.9-.7-1.8-1.3-2.8-1.8-1.9-.9-3.8-1.4-5.3-1.5-3.1-.3-5.1.2-5.2-.2-.1-.1.4-.5 1.2-.8.9-.4 2.2-.7 4-.8 1.8-.1 3.9.2 6.3 1.1 1.2.4 2.3 1.1 3.5 1.9.6.4 1.2 1 1.6 1.3.1.1.1.1.2.1l.1.1c.1 0 .2.1.3 0 .3 0 .4-.3.5-.6.1-.3.1-.8.2-1.3s.2-1.1.4-1.7c.2-.6.6-1.4 1.2-2 .6-.6 1.4-.9 2.1-1 1.5-.3 2.9.1 4.1.8.6.4 1.2.9 1.7 1.5.4.6.7 1.2 1 1.8.5 1.2.6 2.4.6 3.5s0 2.1-.1 3c0 1-.1 1.9-.1 2.8-.2 3.7-.4 7-.6 9.8-.5 5.5-1 8.9-1.5 8.9z" class="colorStroke000 svgStroke"></path><path stroke="#000" stroke-miterlimit="10" d="M1122.3 1009c-.1 0-.2-.3-.3-.8 0-.3-.1-.6-.1-1v-1.4c.1-2.1.8-5.2 2.6-8.6.9-1.7 2.1-3.4 3.6-5.1 1.5-1.7 3.2-3.4 5.2-4.9 2-1.6 4.2-3 6.6-4.3 2.4-1.3 5-2.4 7.7-3.4 5.4-2 10.6-3.3 15.2-4.5 4.7-1.2 8.9-2.4 12.3-3.5 3.4-1.1 5.9-2.5 7.3-3.8 1.4-1.3 2-2.3 2.2-2.2.2.1.1 1.3-1.3 3.1-1.3 1.8-3.9 3.7-7.4 5.1-3.5 1.5-7.6 2.8-12.3 4.2-4.7 1.4-9.8 2.8-14.9 4.7-5.2 1.9-9.8 4.2-13.6 7-1.9 1.4-3.5 2.9-5 4.3-1.5 1.5-2.6 3-3.6 4.5-1.9 3-2.9 5.7-3.3 7.6-.1.5-.2.9-.3 1.3-.1.4-.1.7-.2 1-.2.4-.3.7-.4.7zM1225.4 1000.8c.2.3-4.6 3.6-13.3 7-4.3 1.7-9.7 3.3-15.7 4.5-6 1.3-12.7 2.2-19.8 2.6-14.1.9-26.9 0-36.1-.9-9.2-.9-14.8-1.8-14.8-2.2 0-.5 5.7-.4 14.9-.1 9.2.3 21.8.8 35.7-.1 6.9-.4 13.5-1.2 19.4-2.3 5.9-1.1 11.2-2.4 15.5-3.8 8.8-2.6 13.9-5.1 14.2-4.7zM1189 980.4c.2.1 0 .7-.6 1.5s-1.9 1.7-3.6 2.2c-.9.2-1.9.4-3 .3-1.2-.1-2.2-.5-2.9-.5-.4 0-.6 0-.8.2-.2.1-.5.3-.7.6-.2.3-.4.6-.5 1-.1.2-.1.4-.1.5V986.8c0 .1 0 .3.1.4.2 1 .9 2.3 1.4 3.5.6 1.2 1.1 2.4 1.7 3.5l-.5-.2-.2-.1c-.1 0-.1 0-.2-.1l-1.2-.6c-.8-.4-1.6-.8-2.3-1.2-1.4-.8-2.8-1.5-4.2-2.2-1.5-.8-2.9-1.6-4-2.3-2.2-1.4-3.4-2.4-3.3-2.8.2-.4 1.7 0 4.2.9 1.2.4 2.7 1 4.3 1.7.2.1.5.2.8.2.1 0 .2.1.3.1l.1.1s-.1-.1-.1-.2c-.1-.3-.3-.5-.3-.8v-.9c0-.4.1-.9.2-1.3.2-.8.6-1.5 1.1-2.2.5-.6 1.2-1.2 2-1.5.8-.3 1.7-.4 2.4-.3 1.4.2 2.3.7 3 .8.8.2 1.5.2 2.2.1 2.9.1 4.4-1.3 4.7-1zM1369.3 1018.2c.2.3-.5 1-1.9 1.9-.7.4-1.6.9-2.6 1.3-.3.1-.5.2-.8.3l-.2.1h-.1l-.1.1c-.2.1-.3.1-.4.2-.1 0 0 .1 0 .2.1.1.1.2.2.3l.2.2.1.1.3.2c.2.2.4.3.7.5l-1.4 2.9c-5.8-2.5-11.2-2-11.3-2.9-.1-.4 1.2-1.1 3.5-1.4 2.3-.3 5.6-.1 9 1.3l-1.4 2.9c-.4-.2-.8-.5-1.1-.7-.1-.1-.2-.2-.3-.2l-.3-.3c-.2-.2-.5-.5-.7-.8-.4-.5-.7-1.1-1-1.6-.3-.5-.4-1.1-.6-1.6-.2-.5-.4-1.1-.3-1.4 1.2-.2 2.3-.3 3.3-.5.7-.1 1.4-.3 2-.4 1-.2 1.9-.4 2.6-.6 1.5-.2 2.5-.4 2.6-.1zM1227.8 377.8c.1.4-5.7 1.9-15.3 2.9-1.2.1-2.5.2-3.8.4-1.3.1-2.7.2-4.1.3-2.8.2-5.9.3-9.1.3-6.4 0-13.4-.2-20.8-.9-7.3-.8-14.3-1.9-20.5-3.3-3.1-.7-6.1-1.4-8.8-2.2-1.4-.4-2.7-.7-4-1.1-1.3-.4-2.5-.8-3.6-1.1-9.2-3-14.6-5.6-14.4-6 .2-.5 5.8 1.4 15.1 3.7l3.6.9c1.3.3 2.6.6 4 .9 2.7.7 5.7 1.2 8.8 1.8 6.2 1.1 13 2.2 20.3 3 7.2.7 14.2 1.1 20.5 1.2 3.2 0 6.1.1 8.9 0 1.4 0 2.8 0 4.1-.1 1.3-.1 2.6-.1 3.7-.2 9.4-.3 15.3-1 15.4-.5zM1276 315.1c0 .5-5.7.8-14.8 2-1.1.2-2.3.3-3.6.5-1.2.2-2.5.4-3.9.6-2.7.4-5.5.9-8.5 1.4-6 1.1-12.6 2.3-19.5 3.5-6.9 1.3-13.6 2.3-19.7 3.1-3.1.3-5.9.7-8.7.9-1.4.1-2.7.2-3.9.3-1.3 0-2.5.1-3.7.1-9.3.3-15-.6-15-1 0-.5 5.7-.5 14.9-1.3 1.1-.1 2.3-.2 3.6-.3 1.2-.1 2.5-.3 3.9-.5 2.7-.3 5.5-.7 8.5-1.2 6-.9 12.6-2.1 19.5-3.3 6.9-1.3 13.6-2.4 19.6-3.3 3-.4 5.9-.8 8.6-1.1 1.4-.1 2.7-.3 3.9-.4 1.3-.1 2.5-.2 3.6-.3 9.5-.6 15.2-.1 15.2.3zM1283.7 313.9c-.2.4-1 .4-2 .2s-2.3-.5-3.6-.7c-1.2-.1-2.3 0-3.1.3-.8.2-1.4.5-1.8.3-.4-.2-.4-1.1.5-2.2.9-1 2.7-1.8 4.8-1.6 2 .2 3.4 1.1 4.2 1.9.8.8 1.2 1.4 1 1.8zM1322.9 314.8c.3.2-1 3.6-4.8 8.1s-10.3 9.8-18.9 12.8c-2.2.7-4.3 1.3-6.4 1.7-2.2.3-4.4.4-6.5-.1-2.1-.4-4.1-1.6-5.4-3.1-1.3-1.5-2-3.2-2.3-4.8-.6-3.1-.1-5.5.2-7.1.3-1.6.7-2.5.9-2.4.2 0 .3.9.4 2.5.1 1.6.1 3.9.8 6.4.4 1.3 1 2.5 2 3.5s2.3 1.7 4 2c1.6.3 3.5.2 5.4-.2 1.9-.3 3.9-.9 5.9-1.6 8-2.8 14.3-7.5 18.3-11.3 4-3.7 6-6.6 6.4-6.4zM1190.3 296.5c.3.4-2.5 3.2-6.9 7.8-2.1 2.3-4.6 5.2-6.9 8.6-2.3 3.4-4.1 7.6-6.2 12.1-1.1 2.2-2.3 4.4-3.7 6.4-1.4 2-2.8 3.8-4.4 5.3-3.1 3.2-6.3 5.5-9.2 7.1-2.9 1.6-5.4 2.5-7.2 3-1.8.5-2.8.5-2.9.3-.1-.2.8-.7 2.4-1.5 1.6-.8 3.8-2 6.4-3.8 2.6-1.8 5.5-4.1 8.2-7.2 1.4-1.5 2.7-3.2 3.9-5.1 1.2-1.9 2.3-3.9 3.4-6 2.1-4.3 4.1-8.7 6.7-12.3 2.6-3.6 5.3-6.4 7.8-8.5 2.4-2.2 4.5-3.8 6-4.8 1.6-1.1 2.5-1.6 2.6-1.4zM1176.9 274.8c.2.5-5 3.2-13 8.3-4 2.6-8.6 5.7-13.6 9.5-4.9 3.8-10.2 8.3-15.4 13.2-10.4 10-18.5 20.3-23.8 28.1-2.6 3.9-4 7.4-4.2 9.9-.2 2.5.3 3.9.1 4-.1.1-1.2-1.2-1.3-4.1-.1-1.4.2-3.1.8-5 .6-1.9 1.5-3.9 2.8-6 4.9-8.3 12.9-19 23.5-29.2 5.3-5.1 10.7-9.6 15.8-13.3 5.1-3.8 10-6.7 14.2-9.1 8.4-4.7 14-6.7 14.1-6.3zM1200.4 252.4c-.2.1-.6-.3-1.3-.8-.7-.5-1.8-1-3.2-1-.7 0-1.5.1-2.3.3-.4.1-.8.3-1.1.5-.4.2-.8.5-1.2.8-1.6 1.2-2.9 3-4.4 5.1-5.8 8.6-11.1 15.2-11.8 14.7-.7-.5 3.3-7.9 9.1-16.5 1.5-2.2 3.2-4.3 5.3-5.7.5-.4 1.1-.6 1.7-.9.6-.2 1.2-.4 1.8-.5 1.2-.2 2.3-.2 3.2 0 1.9.4 3.3 1.5 3.9 2.4.5.9.5 1.6.3 1.6z" class="colorStroke000 svgStroke"></path><path stroke="#000" stroke-miterlimit="10" d="M1200.2 258c.4.2-.1 1.9-1.5 4.2-1.5 2.3-3.9 5.2-7.4 7.6-.5.3-1 .6-1.7.8-.2.1-.3.1-.5.1-.2.1-.4.1-.6.1h-1.2c-.8-.1-1.5-.6-1.9-1.2-.2-.3-.4-.7-.5-1-.1-.2-.1-.4-.1-.5 0-.2-.1-.4-.1-.5-.2-2.1.3-3.8.9-5.1.7-1.3 1.5-2.2 2.1-2.7.7-.5 1.1-.6 1.3-.4.3.3-.7 1.6-1.2 3.9-.3 1.1-.4 2.5-.1 3.9V267.5c0 .1.1.1.1.2.1.1.2.1.3.1H1188.4c.1 0 .1 0 .2-.1.3-.1.6-.3 1-.5 3-2.1 5.6-4.5 7.4-6.3 1.6-1.9 2.8-3.1 3.2-2.9zM1209.8 257.2c-.2 0-.4-.4-.5-1.2-.1-.8.1-1.9.3-3.1.3-1.2.7-2.7.8-4 .1-1.3-.3-2.9-1.1-3.7-.4-.4-.8-.5-1.4-.6-.5 0-1.2.2-1.7.5-.6.3-1.1.7-1.6 1.1-.5.4-1 .9-1.5 1.3-.9.9-1.9 1.5-2.6 1.8-.7.3-1.2.3-1.3.1-.1-.2.1-.6.5-1.1.4-.6 1-1.4 1.6-2.3.4-.5.8-1.1 1.3-1.7.5-.6 1.2-1.2 2.1-1.8.8-.5 1.9-1 3.2-1 1.3-.1 2.7.4 3.7 1.4 1 1 1.5 2.2 1.7 3.2.2 1.1.2 2.1.1 3.1-.3 2-1.1 3.3-1.6 4.4-.5 1.1-1 2-1.3 2.6-.3.7-.5 1-.7 1z" class="colorStroke000 svgStroke"></path><path stroke="#000" stroke-miterlimit="10" d="M1222.3 251.6c-.2.1-.6-.3-.7-1.1-.2-.8-.1-2 .4-3.2.4-1.3 1.2-2.6 1.4-3.8.1-.6.2-1.3.1-1.8-.1-.6-.3-.8-.6-1-.3-.2-.9-.2-1.6-.1-.7.1-1.3.3-2 .6-1.2.6-2.3 1.4-3.3 2.1-1.8 1.5-3.1 2.5-3.4 2.1-.3-.3.2-1.7 1.8-3.8.8-1 1.9-2.2 3.5-3.1.8-.5 1.8-.9 2.8-1.1 1-.2 2.3-.3 3.7.3.7.3 1.3.9 1.6 1.5.4.6.6 1.3.7 1.9.2 1.2 0 2.2-.3 3.2-.3.9-.8 1.8-1.2 2.3-.4.6-.7 1.1-1.1 1.6-.6 1-1 1.7-1.2 2.3-.2.6-.3 1-.6 1.1zM1197.8 265.9c0-.5 1.1-.7 2.4-1.4 1.3-.7 3-1.9 4.5-3.6 1.5-1.8 2.5-3.8 3.4-5.2.9-1.4 1.6-2.3 2.1-2.1.4.2.5 1.3.1 3s-1.2 4.1-3 6.4c-1.9 2.3-4.4 3.6-6.4 3.8-2.1.2-3.2-.5-3.1-.9z" class="colorStroke000 svgStroke"></path><path stroke="#000" stroke-miterlimit="10" d="M1209.1 262.3c-.3-.9 3-2.7 5.9-5.9 3-3.2 4.6-6.5 5.5-6.3.4.1.6 1.2.1 2.8-.4 1.6-1.5 3.8-3.2 5.7-1.8 1.9-3.8 3.1-5.4 3.6-1.6.6-2.7.5-2.9.1zM1218.4 276.6c.4.2-.1 2.3-2.1 5.1-1 1.4-2.4 2.9-4.2 4.3-1.8 1.4-4.1 2.7-6.6 3.5-2.6.9-5.1 1-7.1 1.3-2.1.3-3.7.8-5 1.5-2.6 1.4-3.2 3.3-3.6 3.2-.2 0-.4-.6-.1-1.6.2-1 1-2.4 2.5-3.5.7-.6 1.6-1.1 2.6-1.5 1-.4 2-.7 3.1-1 2.2-.5 4.5-.8 6.6-1.5 4.4-1.4 7.9-4 10.1-6.2 2.2-2.1 3.4-3.8 3.8-3.6zM1216.6 275.1c-.1-.2.1-.7-.1-1.1-.1-.2-.2-.6-.5-.8-.3-.3-.6-.5-.9-.5-.6 0-1.5.3-2.5.9-1 .6-2.2 1.5-3.5 2.3-5.9 3.8-11.1 6.3-11.6 5.5-.5-.8 3.9-4.5 9.8-8.3 1.3-.8 2.4-1.6 3.8-2.3.7-.3 1.4-.6 2.2-.8.8-.2 1.6-.1 2.4.1 1.2.4 1.8 1.2 2.1 1.9.3.7.4 1.5.2 2-.2.6-.6.9-.8 1-.4.3-.6.2-.6.1zM1181 284.7c-.1-.4.6-1.1 1.5-2.1s1.8-2.6 2.1-4.5c.2-1.8-.3-3.6-.9-4.8-.6-1.2-1.2-2-.9-2.4.2-.4 1.4-.2 2.8 1 1.3 1.2 2.7 3.7 2.3 6.6-.4 3-2.3 5-3.9 5.9-1.7.9-2.9.7-3 .3zM1178.7 284.7c-.3.3-1.3 0-2.4-1.3-.5-.6-1-1.5-1.3-2.6-.3-1.1-.4-2.3-.3-3.5.2-1.2.6-2.4 1.1-3.3.5-.9 1.2-1.7 1.9-2.2 1.3-1 2.4-1.1 2.6-.7.2.4-.3 1.1-.9 2.2-.3.5-.6 1.2-.9 1.9-.2.7-.5 1.6-.6 2.5-.1.9-.1 1.8 0 2.5.1.8.2 1.5.4 2.1.4 1.2.7 2.1.4 2.4z" class="colorStroke000 svgStroke"></path><path stroke="#000" stroke-miterlimit="10" d="M1237 261.7c.3.9-12.1 5.6-27.3 11.6-15.2 6-27.5 11.1-27.9 10.3-.4-.8 11.3-7.3 26.6-13.3 15.4-6.1 28.3-9.4 28.6-8.6z" class="colorStroke000 svgStroke"></path><ellipse cx="1249.4" cy="258.1" stroke="#000" stroke-miterlimit="10" rx="18.4" ry="1.6" transform="rotate(-18.177 1249.612 258.067)" class="colorStroke000 svgStroke"></ellipse><path stroke="#000" stroke-miterlimit="10" d="M1258.4 236.7c.4.8-6.9 4.8-16.6 8.1-9.7 3.3-17.9 4.7-18.1 3.8-.2-.9 7.5-3.6 17.1-6.9 9.4-3.2 17.2-5.9 17.6-5zM1267.5 253.7c.2-.2 1.7 2.2 5.3 5.3 1.8 1.6 4.2 3.2 7.3 4.7 3.1 1.4 6.8 2.5 11 2.6 4.2.1 8.8-.7 13.3-2.8 4.5-2.1 8.6-5.5 11.7-10.1 3.1-4.6 5.2-10.2 6.6-16.2.7-3 1.3-6.1 1.6-9.3.3-3.1.3-6.3-.5-9.3-1.4-6.1-5.6-11.2-10.4-14.5-2.5-1.6-5.2-2.9-7.9-3.7-2.8-.8-5.6-1.1-8.4-1.1-5.5 0-10.8 1.4-15.3 3.4-4.6 2-8.4 4.7-11.5 7.7-3.1 2.9-5.4 6-7.1 9-1.7 3-2.7 5.7-3.3 8-1.2 4.7-1 7.4-1.3 7.4-.1 0-.2-.7-.3-2-.1-.7 0-1.5 0-2.4 0-.5.1-1 .1-1.5.1-.5.1-1.1.3-1.7.4-2.5 1.3-5.4 2.9-8.6 1.6-3.2 3.9-6.6 7.1-9.8 3.2-3.2 7.2-6.2 12-8.5 4.8-2.2 10.4-3.8 16.4-3.9 3 0 6.1.3 9.2 1.1 3.1.8 6.1 2.2 8.9 4 2.7 1.9 5.3 4.2 7.4 6.9 1 1.4 1.9 2.9 2.7 4.5.7 1.6 1.4 3.3 1.8 5 .9 3.5.8 7 .5 10.4-.3 3.4-.9 6.5-1.7 9.7-1.5 6.2-3.7 12.2-7.2 17.2-1.7 2.5-3.7 4.7-5.9 6.5-2.2 1.8-4.6 3.3-7.1 4.4-4.9 2.2-10 2.9-14.5 2.6-4.6-.3-8.5-1.6-11.7-3.3-3.2-1.7-5.6-3.6-7.4-5.4-1.8-1.8-2.9-3.3-3.6-4.5-.8-1.1-1.1-1.8-1-1.8z" class="colorStroke000 svgStroke"></path><path stroke="#000" stroke-miterlimit="10" d="M1303.6 220.8c-.4.3-1.5-1-3.7-2.4-2.1-1.4-5.3-3-9.1-3.3-3.8-.4-7.2.6-9.2 1.9-2.1 1.2-3 2.7-3.4 2.5-.2-.1-.3-.6 0-1.4.3-.8.9-1.9 2-3 2.2-2.1 6.4-3.8 10.9-3.3 4.6.4 8.3 2.6 10.3 4.8 2 2.1 2.5 4 2.2 4.2zM1288.6 249.7c-.4.2-1.4-.9-2.3-2.8-1-2-2-4.9-2.4-8.3-.4-3.4-.1-6.5.4-8.6.5-2.2 1.2-3.4 1.6-3.3.9.2.5 5.4 1.2 11.6.7 6 2.3 11 1.5 11.4z" class="colorStroke000 svgStroke"></path><path stroke="#000" stroke-miterlimit="10" stroke-width=".5" d="M1317.6 239.1c.1 0 .1.9-.3 2.4s-1 3.6-2.3 6c-1.3 2.4-3.1 5.2-5.9 7.6-2.8 2.4-6.4 4.4-10.6 5.2-4.2.9-8.3.6-11.8-.2-3.6-.8-6.6-2.1-8.9-3.5-2.3-1.4-4-2.9-5.1-4-1.1-1.1-1.5-1.8-1.5-1.9.1-.1.7.5 1.9 1.4 1.2.9 2.9 2.2 5.2 3.4 2.3 1.2 5.2 2.4 8.7 3.1 3.4.7 7.3.9 11.1.1 3.9-.8 7.3-2.6 10-4.8 2.7-2.2 4.6-4.7 5.9-7 1.4-2.3 2.1-4.3 2.7-5.7.6-1.3.8-2.1.9-2.1z" class="colorStroke000 svgStroke"></path><path stroke="#000" stroke-miterlimit="10" stroke-width=".5" d="M1316.4 242.3c-.1 0 .4-1.2.9-3.5.6-2.2 1.2-5.5 1.1-9.6-.1-4-1.1-8.9-4.1-13.4-1.4-2.2-3.3-4.4-5.5-6.2-2.2-1.8-4.9-3.2-7.9-4-3-.7-6-.6-8.8-.1-2.9.5-5.7 1.1-8.2 2-5.1 1.8-9 4.8-11.8 7.8-2.8 3-4.4 5.9-5.4 8-1 2.1-1.4 3.3-1.5 3.3-.1 0 .1-1.3.9-3.5s2.3-5.3 5.1-8.5c2.7-3.2 6.8-6.5 12.1-8.4 2.6-1 5.5-1.6 8.5-2.1s6.3-.7 9.5.1c3.2.8 6.1 2.3 8.5 4.3 2.4 2 4.3 4.3 5.8 6.6 1.4 2.4 2.6 4.9 3.1 7.3.6 2.4.8 4.8.8 6.9-.1 4.2-.9 7.6-1.7 9.8-.6 2.1-1.3 3.2-1.4 3.2zM1269.4 246.8c-.2.1-.8-.4-1.7-1.5-.8-1.1-1.7-2.8-2.3-4.8-.6-2-.8-3.9-.7-5.3.1-1.4.3-2.2.5-2.2.5 0 .6 3.3 1.8 7 1.1 3.7 2.8 6.5 2.4 6.8z" class="colorStroke000 svgStroke"></path><path stroke="#000" stroke-miterlimit="10" d="M1255.6 228.1c-.6.7-2.9-.4-5.6-1.5-2.7-1.1-5.1-2-5-2.9 0-.4.7-.8 1.9-.9 1.2-.1 2.8.1 4.4.8 1.6.7 2.9 1.6 3.6 2.5.8.9 1 1.7.7 2zM1253 237.2c-.3.3-.9.3-1.5-.1s-1.1-1.1-1.4-2c-.3-.9-.1-1.9.2-2.4.3-.6.8-.9 1.2-.8.4.1.8.4 1.1.9.3.4.5 1 .7 1.5.2.6.2 1.2.2 1.7s-.2.9-.5 1.2zM1267.2 264.6c-.3.4-.9.4-1.8-.1-.8-.4-1.8-1.4-2.4-2.6-.6-1.3-.7-2.6-.5-3.5.2-.9.7-1.4 1.1-1.4.5 0 .8.5 1.2 1.2.4.7.7 1.5 1.1 2.4.4.9.8 1.7 1.1 2.4.3.7.4 1.3.2 1.6zM1290.4 275.7c.1.4-1.6 1.3-4.7 2.1-3 .7-7.5 1.3-12.4.4s-9-3.2-11.3-5.4c-2.4-2.2-3.2-4.1-2.8-4.4.4-.3 1.8 1 4.3 2.5 2.5 1.6 6.1 3.2 10.5 4 4.4.8 8.5.7 11.5.5 2.9 0 4.8-.1 4.9.3zM1235.6 219.5c-.2.1-.9-1.2-1.6-3.6-.3-1.2-.7-2.7-.9-4.5-.1-.6-.1-1.2-.2-1.9 0-.5-.1-.9-.1-1.3v-.1l-.2.2c-.1.1-.2.3-.4.4-.2.3-.4.5-.6.8l-.3.4c-.2.3-.5.6-.7.9-.5.7-1 1.4-1.6 2.1-2.1 2.9-4.3 6.1-6.6 9.5l-3.9 5.9 1-7c.5-3.4 1.3-7 2.4-10.5 2-6.2 4.8-11.8 7.9-16.5 3.1-4.7 6.5-8.5 9.6-11.4 6.3-5.8 11.1-8 11.3-7.7.3.4-4 3.3-9.6 9.3-2.8 3-5.9 6.8-8.7 11.4-2.8 4.6-5.4 10-7.4 15.9-1.1 3.4-1.8 6.8-2.4 10l-2.9-1.1c2.3-3.4 4.6-6.6 6.9-9.4.6-.7 1.1-1.4 1.7-2.1.3-.4.6-.7.9-1 .5-.5.9-1 1.3-1.5.9-.9 1.7-1.8 2.5-2.6l1.2-1.2.6-.6.1-.1H1235.2c-.2 1.9-.3 3.8-.4 5.4-.1 1.5 0 3.1 0 3.7.1 1.7.2 3.2.3 4.4.5 2.3.7 3.7.5 3.8z" class="colorStroke000 svgStroke"></path><path stroke="#000" stroke-miterlimit="10" d="M1279.9 188.4c.2.2-1.4 2.1-4.2 5.1-3.4 3.6-8.1 8.8-13.8 14.9-.4-2.1-.8-4.7-.9-7.2l-.1-.9v-2c0-.8 0-1.7.1-2.6.1-.9.2-1.7.3-2.6.1-.4.1-.9.2-1.3l.1-.6.3-1.2v-.1l-.1.1-.2.2-.4.3-.4.3c-.3.3-.6.6-1 .9-2.1 1.9-4.1 3.8-5.9 5.6-3.7 3.7-6.9 7.1-9.5 10-5.3 5.9-8.3 9.7-8.7 9.4-.3-.2 2.1-4.6 6.9-10.9 2.4-3.2 5.5-6.8 9.2-10.6 1.8-1.9 3.8-3.9 5.9-5.8.7-.7 1.5-1.3 2.2-2 .9-.9 1.9-1.7 2.9-2.5s1.9-1.7 2.9-2.5l1.5-1.3.7-.6.5-.3.1-.1c-.7 1.8-1.3 3.6-2 5.4-.6 1.8-1.2 3.5-1.6 5-.1.4-.2.8-.3 1.1l-.2.9c-.1.4-.1.8-.2 1.2l-.3 2.4c-.1.8-.1 1.6-.2 2.4v3.5c0 .1 0 0 0 0 .2-.2.4-.4.6-.5l.3-.3.2-.1.4-.4c1.2-1.1 2.3-2.2 3.3-3.2 2.1-2 4-3.7 5.6-5 3.6-2.9 5.6-4.3 5.8-4.1zM1301.4 161.3c-.2.1-.8-.7-1.9-1.8-1.1-1.1-3.1-2.4-5.8-3.3-2.7-.8-6.1-1-9.7-.1-3.7.9-7.5 2.7-11.5 4.9-16 8.7-26.8 19-27.5 18.3-.3-.3 2-3.3 6.5-7.4 4.5-4.1 11.2-9.3 19.4-13.7 4.1-2.2 8.2-4.2 12.4-5 2.1-.4 4.1-.6 6-.4 1.9.2 3.6.6 5.1 1.2 3 1.2 5 3.1 6 4.6 1 1.7 1.2 2.7 1 2.7zM1365.7 221.8c-.1 0-.1-.4-.1-1.1 0-.4 0-.8.1-1.3 0-.5.1-1.1.1-1.8.1-2.7 0-6.7-.9-11.5-.4-2.4-1.2-5-2.1-7.7-1-2.7-2.2-5.6-3.9-8.4-.4-.7-.8-1.4-1.3-2.1-.5-.7-.9-1.4-1.4-2.1-1-1.4-2.1-2.8-3.3-4.1l-.9-1-1-1-1.1-1.1-.9-.9-1.1-.9c-1.5-1.2-3-2.3-4.6-3.5-1.5-1.1-3.1-2.3-4.7-3.4.2 0 .4 0 .7.1l1.1.2c.7.1 1.4.2 2.1.4 1.4.3 2.9.5 4.3.8 2.6.5 5.2.9 7.8 1.4.4.1.8.1 1.2.2H1356.1v-.1c0-.1 0-.3-.1-.4-.1-.2-.3-.4-.5-.6-.8-.6-1.6-1.3-2.5-1.9-3.3-2.5-6.9-4.5-10.3-6.1-7-3.2-13.8-4.7-19.6-5.3-5.8-.6-10.6-.3-13.8.1-1.6.1-2.9.4-3.8.5-.9.1-1.3.1-1.4 0 0-.1.4-.3 1.2-.6.8-.3 2.1-.7 3.7-1.1 3.3-.8 8.2-1.5 14.2-1.2 6 .3 13.3 1.6 20.7 4.8 3.7 1.6 7.4 3.6 11 6.2.9.7 1.7 1.3 2.6 2 .7.5 1.4 1.2 1.9 1.9s.9 1.4 1 2.1c.1.7.1 1.4-.2 2.1l-.2.5c-.1.1-.3.1-.4.1l-.9.2c-.3.1-.5.2-.9.2l-1.5-.3c-.8-.1-1.7-.3-2.5-.4-.7-.1-1.5-.3-2.2-.4l-.6-.1-.3-.1h-.2l.1.1c.4.3.7.6 1.1.9l.2.2.9.9 1 1c.3.4.6.7.9 1.1 1.3 1.4 2.3 2.9 3.4 4.4.5.8 1 1.5 1.4 2.3.5.7.9 1.5 1.3 2.3 1.7 3 2.8 6.1 3.8 8.9.9 2.9 1.5 5.6 1.8 8.2.6 5.1.4 9.2 0 11.9-.1.7-.2 1.3-.3 1.8-.1.5-.2 1-.3 1.3.1 1 0 1.4-.1 1.4zM1344.4 230.4c-.3.1-.7-.6-1.5-1.8-.8-1.2-2-2.8-3.7-4.5l2.1-1.7c.8 1 1.6 2.2 2.5 3.4l1 1.3-1.5.9c-.5.3-1 .4-1.6.5-.5 0-1-.1-1.5-.2-.9-.3-1.5-.7-2.1-1.2-.6-.5-1-.9-1.6-1.4-.5-.5-1-.9-1.5-1.4-4.1-3.9-7.4-7.9-9.5-11-2.1-3.1-3.1-5.2-2.7-5.4.8-.5 6.5 6.5 14.5 14.1.5.5 1 .9 1.4 1.4.5.4 1 .9 1.4 1.3.4.3.8.6 1.1.7.3.1.4.1.5.1l-.5 2.2c-.8-1.3-1.5-2.5-2.2-3.6l2.1-1.7c1.8 2.1 2.7 4.2 3.1 5.7.5 1.3.4 2.2.2 2.3zM1337.6 286.5c-.3-.3 2-2.6 5.2-6.8 3.2-4.3 7.4-10.7 10.2-19l2.8 1.1c-.1.4-.3.7-.4 1.1-.1.3-.3.7-.4 1-.1.2-.1.4-.2.6l-.3 1.2v.1l.1-.1.2-.1.3-.3.6-.6.3-.4c.2-.3.5-.6.7-.9.5-.6.9-1.3 1.3-1.9.8-1.3 1.5-2.7 2.1-4 1.2-2.7 2.1-5.5 2.7-8.3 1.1-5.5 1.3-10.6 1.2-14.9-.1-4.3-.3-7.8-.4-10.3-.1-2.4 0-3.8.2-3.8s.6 1.3 1.1 3.7c.5 2.4 1 5.9 1.4 10.3.3 4.4.5 9.7-.6 15.6-.6 2.9-1.4 6-2.7 9-.6 1.5-1.4 3-2.3 4.4-.5.7-.9 1.5-1.4 2.1-.3.3-.5.7-.8 1l-.6.7c-.2.3-.5.6-.7.8-.7.8-1.5 1.4-2.2 2.2-.7.6-1.4 1.1-2.1 1.7l-2.1 1.5-1.1.8-.6.4-.3.2-.2.1c.6-2.8 1.1-5.1 1.9-7.7.4-1.3.9-2.7 1.4-4 .2-.4.4-.9.5-1.3.2-.4.3-.8.5-1.1l2.8 1.1c-3.2 8.7-7.9 15.1-11.7 19.2-3.5 4-6.2 5.8-6.4 5.6zM1336.1 285.1c.5.8-1.8 3.3-4.6 6.3s-5.1 5.6-5.9 5.2c-.8-.4.4-4 3.5-7.4 3-3.3 6.5-4.8 7-4.1zM1180.8 304.1c0 .4-1.8.8-4.7.2-.7-.1-1.5-.3-2.3-.6-.8-.3-1.6-.7-2.5-1.1-1.7-.9-3.5-2.1-5.1-3.6-1.6-1.5-2.9-3.2-3.8-4.9-.4-.8-.9-1.6-1.2-2.5-.3-.8-.6-1.5-.7-2.2-.7-2.8-.4-4.6 0-4.7.5-.1 1 1.5 2.2 3.9.3.6.6 1.2 1 1.9s.8 1.3 1.3 2c1 1.4 2.2 2.8 3.6 4.1 1.4 1.3 2.9 2.4 4.3 3.4.7.4 1.4.9 2.1 1.2.7.4 1.3.7 1.9.9 2.3 1 3.9 1.5 3.9 2z" class="colorStroke000 svgStroke"></path><ellipse cx="1151.6" cy="296.8" stroke="#000" stroke-miterlimit="10" rx="3.9" ry="1.6" transform="rotate(-35.095 1151.57 296.874)" class="colorStroke000 svgStroke"></ellipse><ellipse cx="1157" cy="302.2" stroke="#000" stroke-miterlimit="10" rx="5.1" ry="1.6" transform="rotate(-37.426 1157.058 302.196)" class="colorStroke000 svgStroke"></ellipse><path stroke="#000" stroke-miterlimit="10" d="M1164.6 306.2c.7.5 0 2.8-2.1 4.5-2.1 1.8-4.5 2-4.8 1.2-.4-.8 1-2.3 2.8-3.7 1.6-1.4 3.3-2.5 4.1-2zM1385.6 495.1c-.1.4-1.5.6-3.8 0-1.1-.3-2.4-.8-3.8-1.6-1.3-.8-2.7-1.8-4-3.1-1.3-1.3-2.3-2.7-3-4.1-.7-1.4-1.3-2.7-1.5-3.8-.6-2.3-.3-3.8.1-3.8.5-.1 1 1.2 2.1 3 .5.9 1.1 2 1.9 3.1.8 1.1 1.7 2.2 2.8 3.4 1.1 1.1 2.2 2 3.3 2.9 1.1.8 2.1 1.5 3 2 1.7 1 3 1.6 2.9 2zM1382 473.4c.8.5.1 2.9-2.1 4.9-2.2 2-4.6 2.4-5 1.6-.4-.8 1-2.4 2.8-4 1.9-1.7 3.6-3 4.3-2.5z" class="colorStroke000 svgStroke"></path><ellipse cx="1383.1" cy="481.6" stroke="#000" stroke-miterlimit="10" rx="3.8" ry="1.6" transform="rotate(-46.172 1383.145 481.66)" class="colorStroke000 svgStroke"></ellipse><ellipse cx="1387" cy="486.4" stroke="#000" stroke-miterlimit="10" rx="3.2" ry="1.6" transform="rotate(-45.001 1386.953 486.428)" class="colorStroke000 svgStroke"></ellipse><ellipse cx="1272" cy="331.5" stroke="#000" stroke-miterlimit="10" rx="3.5" ry="1.6" transform="rotate(129.872 1271.983 331.47)" class="colorStroke000 svgStroke"></ellipse><ellipse cx="1275.5" cy="340.4" stroke="#000" stroke-miterlimit="10" rx="3" ry="1.6" transform="rotate(116.647 1275.447 340.413)" class="colorStroke000 svgStroke"></ellipse><ellipse cx="1285.9" cy="344.1" stroke="#000" stroke-miterlimit="10" rx="1.6" ry="2.7" class="colorStroke000 svgStroke"></ellipse><ellipse cx="1298.6" cy="343.6" stroke="#000" stroke-miterlimit="10" rx="2.4" ry="1.6" transform="rotate(68.425 1298.61 343.599)" class="colorStroke000 svgStroke"></ellipse><ellipse cx="1311.6" cy="338.2" stroke="#000" stroke-miterlimit="10" rx="2.6" ry="1.6" transform="rotate(58.689 1311.525 338.179)" class="colorStroke000 svgStroke"></ellipse><ellipse cx="1325.4" cy="331.5" stroke="#000" stroke-miterlimit="10" rx="4.5" ry="1.6" transform="rotate(38.255 1325.309 331.488)" class="colorStroke000 svgStroke"></ellipse><path stroke="#000" stroke-miterlimit="10" d="M1246.3 162.5c.5.8-4.2 4.7-9.9 9.6-5.7 4.9-10.2 9-10.9 8.4-.7-.6 2.9-5.8 8.8-10.9 5.8-5 11.5-7.8 12-7.1zM1230.9 461.7c-1-.1-.3-13.7-2.8-30.1-2.4-16.5-6.9-29.3-6-29.7.4-.2 2 2.9 4 8.1 1 2.6 1.9 5.8 2.9 9.3.9 3.6 1.7 7.5 2.4 11.7.6 4.2 1 8.2 1.1 11.9.1 3.7.1 7-.1 9.8-.4 5.7-1.1 9-1.5 9zM1114.8 306.7c.6.8-5.9 6.1-12.4 14s-10.5 15.2-11.4 14.8c-.4-.2.1-2.3 1.6-5.5s3.9-7.3 7.3-11.4c3.4-4.1 7-7.3 9.8-9.4 2.8-1.9 4.8-2.8 5.1-2.5zM1181.2 229.5c.1-.9 3.8-1.1 8.2-1.7 4.4-.5 8-1.2 8.4-.4.2.4-.6 1.2-2 1.9s-3.5 1.4-6 1.7c-2.4.3-4.6.1-6.2-.2-1.6-.3-2.5-.8-2.4-1.3z" class="colorStroke000 svgStroke"></path><ellipse cx="1193" cy="215.8" stroke="#000" stroke-miterlimit="10" rx="7.9" ry="1.6" transform="rotate(-142.636 1193 215.831)" class="colorStroke000 svgStroke"></ellipse><ellipse cx="1203.4" cy="206.9" stroke="#000" stroke-miterlimit="10" rx="1.6" ry="6.9" class="colorStroke000 svgStroke"></ellipse><path d="M1362.1 594.4c-2.5 8.1-1.7 16.3-1.2 24.6.5 8.5 1.1 16.9 1.8 25.4 1.5 17.6 3.3 35.1 5.3 52.7 3.9 34.1 8.1 68.1 13.9 102 1.7 9.6 3.6 19.2 5.6 28.8 1 4.8 1.6 9.7 2.9 14.4 1.3 5.1 3.7 9.8 5.5 14.7.3.9 1.9.9 1.8-.2-.3-8.6-.7-16.5-2.2-25-1.5-8.4-2.9-16.8-4.2-25.2-2.8-17.4-5.7-34.8-8.3-52.3-5.1-34.6-9.6-69.2-12.6-104-.8-9.8-1.7-19.5-2.5-29.3-.7-9.1-.8-18.3-4.6-26.8-.1-.6-1-.4-1.2.2zM1103.1 962.9c3.4 2.5 6.8 5 10.4 7.3 3.3 2.1 6.3 4.9 10.1 6.1 1.9.6 3-1.5 2.3-3-3.3-7.7-14.5-11.8-22.3-12.2-1.1-.1-1.2 1.3-.5 1.8zM1115.1 948.8c1.4 4.3 4 8.2 6.7 11.7 1.2 1.6 2.6 3.2 4 4.7 2.2 2.4 3.2 2.8 6.1 4.1 1.2.5 2.7-.3 2.3-1.7-.7-2.4-.6-3.2-2.2-5.3-1.6-2-3.2-3.9-5-5.7-3.3-3.2-7-6.4-11.1-8.3-.4-.1-.9.1-.8.5zM1133.7 944.9c1.5 4.8 2.6 10.8 6.2 14.6 1.2 1.2 2.9-.1 2.7-1.6-.8-5-4.9-9.5-7.8-13.5-.3-.5-1.3-.2-1.1.5z" fill="#000000" class="color000 svgShape"></path></g><g id="Layer_4"><path fill="#00c6ff" d="M577.7 233c-4.2 14.6-2.7 30.8-3.4 45.8-.8 15.8-1.7 31.6-2.2 47.4-1.1 30.7-1.7 61.4-1.7 92.1 0 30.6 1.1 61.2 4.4 91.6 2.4 21.9 4 62.7 34.3 64 14.1.6 25.9-10.8 34.3-20.8 4.5-5.3 9.2-11.2 12-17.6 2.9-6.6 4.6-14.2 5.3-21.3.2-2.3-3.1-2.9-4.2-1.1-3.2 5.3-6.3 10.5-10.1 15.4-3.7 4.8-6.6 10.2-10.4 15-6.2 7.7-15.9 19.7-26.9 19-12.7-.7-17.7-15.4-19.7-25.8-2.6-13.3-3.9-26.9-5.1-40.4-5.1-56-2.6-112.1-2.1-168.2.2-15.8 0-31.6-.1-47.4-.1-15.7 2.2-32.5-1.4-47.8-.5-1.4-2.6-1.3-3 .1zM782.3 287.3c2.2 7 4.2 14.1 6.1 21.2 2 7.4 4.3 14.7 6.2 22.1 3.9 14.6 7.9 29.2 11.3 43.9 6.8 29.4 12 59.1 17.1 88.8 10.1 59.8 20.7 119.5 47.3 174.5 5.9 12.2 14.2 25.9 29.2 27 6.9.5 13.5-2.4 18.9-6.5 6.3-4.8 9-12 12.8-18.6 1.6-2.7-2.3-6-4.5-3.5-4 4.6-8.9 7.7-13.7 11.5-4.6 3.6-9.9 6.8-15.9 4.8-11.1-3.8-16.2-19.6-20.3-29.2-11.2-26-19.1-53.8-25.7-81.3-13.3-55.2-20.1-111.8-33.2-167.1-3.7-15.5-7.8-31-13.5-45.9-2.8-7.2-5.6-14.5-9.1-21.4-1.8-3.5-3.5-7.1-5.3-10.6-1.8-3.5-4.3-6.7-6.3-10.1-.6-.7-1.6-.3-1.4.4zM1038.6 516.7c2.2 3.9 4.8 5.1 8.3 7.9 3.8 3 6.9 6.8 9.5 10.9 5.1 8.3 8.6 17.3 11.2 26.6 3.2 11.5 5.2 23.3 7.9 34.9 3 13.3 5.9 26.6 8.7 39.9 10.8 52.7 19.7 105.8 26.1 159.2 3.6 30.2 6.5 60.5 8.7 90.9.7 9.2 15 9.2 14.3 0-4.3-56.2-11-112.1-20.2-167.7-4.6-27.8-9.9-55.5-15.9-83-5.6-25.8-11.1-51.9-19.4-77-3.4-10.3-7.6-20.7-14.3-29.3-5.2-6.6-15.1-17.8-24.4-14.4-.5.1-.7.7-.5 1.1zM603.8 113.7c2.8 11.7 4.3 23.8 7.2 35.5.3 1.2 2.2.9 2.1-.3-.6-11.9-4.1-24.3-7.4-35.7-.4-1.3-2.2-.8-1.9.5zM1064.2 640.3c3.2 30.3 6.5 60.6 10.3 90.9.1.9 1.4.9 1.4 0-.7-30.4-4.7-61.2-11.2-90.9 0-.4-.5-.3-.5 0zM822 549.8c1.5 6.6 2.9 13.2 4.8 19.7.3 1.1 1.9.6 1.7-.5-1.1-6.7-2.7-13.3-4.2-19.9-.3-1.5-2.6-.9-2.3.7z" class="colorff4f03 svgShape"></path><path fill="#00c6ff" stroke="#ff4f03" stroke-miterlimit="10" stroke-width="7" d="M565.3 206.3c8.1-19.9 16.2-39.7 24.3-59.6 1.2 9 3.2 22.4 6.6 38.6 6.2 29.3 13.1 46.6 11.2 47.4-1.3.6-6.5-6.5-24.7-42.8" class="colorff4f03 svgShape colorStrokeff4f03 svgStroke"></path><path stroke="#000" stroke-miterlimit="10" d="M1111 865.8s-.1-.4-.2-1.1c-.1-.8-.3-1.9-.5-3.4-.4-3-1-7.4-1.8-13.2-1.6-11.6-3.8-28.7-7-50.7-6.4-44-16.4-107.5-32.2-185.3-2-9.7-4-19.7-6.3-29.8-2.3-10.1-4.9-20.4-8.9-30.4-2-5-4.3-9.9-7-14.6-1.4-2.4-2.9-4.6-4.5-6.8-1.7-2.1-3.4-4.3-5.4-6.2-.5-.5-1-1-1.5-1.4l-1.5-1.4c-1.1-.8-2.1-1.8-3.3-2.5-2.2-1.6-4.7-2.9-7.2-4s-5.2-1.7-8-2c-.7 0-1.4-.1-2.1-.1l-2.1.1c-.7 0-1.4.2-2 .3l-1 .2-1 .3c-2.7.7-5.3 1.8-7.6 3.3-2.4 1.5-4.5 3.4-6.5 5.5-4 4.2-7.3 9.1-10.3 14.3-5.8 10.5-11.2 21.5-16.5 32.7-10.6 22.4-20.6 46-33.3 69.1-1.6 2.9-3.2 5.8-4.9 8.6-.8 1.4-1.7 2.9-2.5 4.3l-2.7 4.2c-1.8 2.8-3.6 5.7-5.7 8.4s-4.5 5.3-7.4 7.4c-2.9 2.1-6.4 3.6-10.1 3.9-3.7.3-7.4-.5-10.6-2-3.3-1.5-6.2-3.5-9-5.7-1.4-1.1-2.6-2.4-3.9-3.5-1.3-1.2-2.5-2.5-3.7-3.8-4.7-5.2-8.7-11-12.1-17.2-3.4-6.2-6.2-12.7-8.6-19.4-4.7-13.4-7.9-27.3-10.9-41.2-12.3-55.8-25-113.6-38-172.8-6.5-29.6-12.9-58.9-19.3-87.7l-2.4-10.8c-.8-3.6-1.6-7.1-2.7-10.5-2.2-6.8-5.6-13.2-11.5-16.8-2.8-1.8-6.1-3-9.4-3.1-1.6 0-3.2.2-4.8.7-1.5.5-3 1.4-4.3 2.4-2.7 2-5 4.7-7.2 7.5-1.1 1.4-2.3 2.7-3.3 4.1l-3.1 4.3c-3.9 5.9-7.4 12-10.3 18.4-1.5 3.1-2.8 6.4-4.1 9.6-.6 1.6-1.2 3.3-1.8 4.9-.6 1.6-1.2 3.3-1.7 4.9-4.3 13.2-7.4 26.8-10.2 40.2-2.8 13.4-5.4 26.8-8.5 39.9-3.1 13.1-6.6 26-10.5 38.6-3.9 12.6-8.1 24.9-12.7 36.9-4.7 12-9.9 23.6-16.1 34.5l-1.2 2-1.2 2c-.8 1.3-1.6 2.7-2.5 4-1.7 2.6-3.4 5.2-5.3 7.7-1.8 2.5-3.8 4.9-5.7 7.3-1 1.2-2 2.3-3.1 3.4l-1.5 1.7c-.5.6-1.1 1.1-1.6 1.6l-3.2 3.2c-1.1 1-2.3 2-3.4 3s-2.3 2-3.5 2.9c-1.2.9-2.3 1.9-3.6 2.8-2.4 1.8-5 3.4-7.8 4.8-2.7 1.3-5.7 2.4-8.7 2.8-3.1.5-6.3.2-9.2-.8-3-1-5.6-2.7-7.8-4.6-2.3-2-4.2-4.2-5.9-6.6l-.7-.9-.6-.9-1.2-1.8c-.8-1.2-1.4-2.5-2.1-3.8-2.6-5.2-4.4-10.6-5.6-16.1-1.3-5.5-2-11-2.5-16.4-.5-5.4-.7-10.8-.9-16.1-.2-5.3-.4-10.6-.5-15.8-.3-10.4-.6-20.6-.8-30.5-1.6-79.5.9-143.8 3.3-188.2 1.2-22.2 2.5-39.4 3.4-51.1.5-5.8.9-10.3 1.2-13.3.1-1.5.3-2.6.3-3.4.1-.8.1-1.1.2-1.1v1.1c0 .8-.1 1.9-.2 3.4-.2 3-.5 7.4-.8 13.3-.7 11.7-1.8 28.9-2.8 51.1-2.1 44.4-4.1 108.7-2.3 188.1.2 9.9.5 20.1.9 30.5.5 10.4.6 21 1.6 31.7s3 21.6 8 31.5c.7 1.2 1.3 2.4 2 3.6l1.1 1.7.6.9.6.8c1.6 2.2 3.4 4.3 5.5 6.1 2.1 1.8 4.4 3.3 7 4.1 2.5.8 5.3 1 8 .6 5.5-.8 10.6-3.7 15.3-7.1 1.2-.9 2.3-1.8 3.5-2.7 1.2-.9 2.3-1.8 3.4-2.8l3.3-3c1-1.1 2.1-2.1 3.2-3.2l1.6-1.6 1.5-1.7c1-1.1 2-2.2 3-3.4 1.9-2.3 3.8-4.7 5.6-7.1 1.8-2.4 3.5-5 5.2-7.5l2.4-3.9 1.2-2 1.1-2c6.1-10.7 11.3-22.2 15.9-34.1 4.6-11.9 8.7-24.2 12.5-36.7 3.8-12.5 7.3-25.3 10.4-38.4 3.1-13 5.7-26.4 8.5-39.9s5.9-27.1 10.3-40.5c.5-1.7 1.1-3.4 1.7-5 .6-1.7 1.2-3.3 1.8-5 1.4-3.3 2.6-6.6 4.2-9.8 2.9-6.5 6.5-12.8 10.5-18.8l3.1-4.4c1.1-1.5 2.3-2.8 3.4-4.3 2.3-2.8 4.7-5.6 7.8-8 1.5-1.2 3.3-2.2 5.1-2.8 1.9-.7 3.9-1 5.9-.9 4 .1 7.8 1.5 11 3.6 1.6 1.1 3.1 2.3 4.5 3.7 1.4 1.4 2.6 2.9 3.6 4.5 2.1 3.2 3.6 6.8 4.7 10.3 1.2 3.6 2 7.2 2.8 10.8l2.4 10.8c6.3 28.8 12.8 58.1 19.3 87.7 13 59.2 25.7 117 38 172.8 3.1 13.9 6.2 27.7 10.8 40.9 4.6 13.1 10.9 25.5 20 35.5 1.1 1.2 2.2 2.5 3.5 3.6 1.2 1.1 2.4 2.4 3.7 3.4 2.6 2.1 5.3 3.9 8.2 5.3 2.9 1.3 6.1 2 9.1 1.7 3.1-.3 6-1.5 8.5-3.3 2.6-1.8 4.8-4.2 6.8-6.8 2-2.6 3.8-5.3 5.5-8.1.9-1.4 1.8-2.8 2.6-4.2.8-1.4 1.7-2.8 2.5-4.2 1.7-2.8 3.3-5.7 4.9-8.5 12.6-22.9 22.6-46.5 33.3-69 5.3-11.3 10.8-22.3 16.7-32.9 3-5.3 6.4-10.4 10.7-14.8 2.1-2.2 4.5-4.2 7.1-5.9 2.6-1.6 5.5-2.9 8.4-3.6l1.1-.3 1.1-.2c.8-.1 1.5-.3 2.3-.3l2.3-.1c.8 0 1.5.1 2.3.1 3 .3 6 1 8.7 2.2 2.8 1.1 5.4 2.6 7.7 4.3 1.2.8 2.3 1.8 3.5 2.7l1.6 1.4c.5.5 1.1 1 1.6 1.5 2.1 2 3.9 4.2 5.7 6.5 1.7 2.3 3.3 4.7 4.6 7.1 2.8 4.8 5.2 9.9 7.2 15 4 10.2 6.6 20.6 8.9 30.8 2.2 10.2 4.2 20.1 6.2 29.9 15.6 77.9 25.2 141.6 31.2 185.6 3 22 5 39.2 6.4 50.8.6 5.8 1.1 10.2 1.4 13.2.1 1.5.3 2.6.3 3.4.1.9.1 1.3.1 1.3z" class="colorStroke000 svgStroke"></path><path stroke="#000" stroke-miterlimit="10" d="M653.7 521c.1 0-.2 1.5-1.1 4.1-.9 2.6-2.5 6.5-5.4 11-2.8 4.5-7.1 9.7-13 14.4-3 2.4-6.3 4.8-10.1 6.9-3.8 2.1-8.2 3.9-13.2 4.4-2.5.2-5.1 0-7.6-.8-1.3-.4-2.5-1-3.7-1.7-1.1-.7-2.2-1.6-3.2-2.5-2-1.9-3.6-4.2-5-6.5-1.3-2.4-2.6-5-3.5-7.6-2-5.3-3.4-11-4.5-16.9-.3-1.5-.5-3-.7-4.5l-.6-4.5c-.4-3-.9-6.1-1.2-9.2-.3-3.1-.6-6.3-.9-9.5-.1-1.6-.3-3.2-.4-4.8-.1-1.6-.2-3.3-.3-4.9-.4-6.6-.9-13.2-1.1-20.1-.2-6.8-.6-13.8-.7-20.8-.1-7-.4-14.2-.4-21.4-.3-28.9-.1-56.4.4-81.5.5-25 1.2-47.6 1.9-66.5s1.4-34.2 2-44.8c.3-5.3.6-9.4.8-12.2.2-2.8.4-4.2.5-4.2.1 0 .2 1.5.2 4.3s-.1 6.9-.2 12.2c-.2 10.6-.6 25.9-1 44.8s-.9 41.5-1.2 66.5c-.3 25-.5 52.5-.2 81.4 0 7.2.2 14.3.4 21.4.1 7 .4 13.9.6 20.7.2 6.8.6 13.5 1 20 .1 1.6.2 3.3.3 4.9.1 1.6.3 3.2.4 4.8.3 3.2.5 6.3.8 9.4.2 3.1.7 6.1 1.1 9.2l.6 4.5c.2 1.5.4 3 .7 4.4 1 5.8 2.4 11.3 4.2 16.4.9 2.6 2 5 3.3 7.3 1.3 2.2 2.8 4.3 4.5 6 .8.9 1.8 1.6 2.8 2.3 1 .6 2 1.1 3.1 1.5 2.2.7 4.5 1 6.7.8 4.5-.4 8.7-2 12.4-3.9 3.7-1.9 7-4.2 9.9-6.5 5.9-4.5 10.2-9.4 13.1-13.7 3-4.3 4.7-8 5.8-10.6 1.1-2.6 1.6-4 1.7-4zM922.6 640.9c.1 0-.6 1.5-2.5 3.9-1 1.2-2.2 2.6-3.9 4.1-1.7 1.5-3.8 3.1-6.6 4.3-2.7 1.2-6.1 1.9-9.8 1.6-1.8-.2-3.7-.6-5.5-1.3-1.8-.7-3.7-1.7-5.4-2.8-3.5-2.3-6.8-5.4-10-8.9s-6.3-7.4-9-12c-2.7-4.5-4.9-9.6-6.7-15-1.8-5.4-3.3-11.2-4.6-17.1-2.5-12-4.5-24.8-7.1-38.2-2.6-13.4-5.5-27.5-8.4-42.1-2.9-14.6-5.5-29.8-8.5-45.3-1.5-7.7-3.1-15.4-4.6-22.9-1.5-7.5-2.9-15-4.2-22.3-1.3-7.3-2.9-14.4-4.4-21.4-1.5-7-3-13.8-4.4-20.5-2.9-13.4-5.6-26.1-8.2-37.9-1.3-5.9-2.5-11.7-3.7-17.2-1.2-5.5-2.2-10.8-3.6-15.8-1.3-4.9-2.9-9.6-4.8-13.7-1.9-4.2-4.2-7.9-6.6-11.1-4.9-6.4-10.5-10.8-15.4-13.8s-9.1-4.6-11.9-5.7c-2.8-1-4.4-1.5-4.4-1.6 0-.1 1.6.1 4.6 1 2.9.9 7.2 2.3 12.4 5.2 5.1 2.9 10.9 7.2 16.2 13.8 2.6 3.3 5 7.1 7.1 11.3 2.1 4.3 3.8 9 5.2 14 1.4 5 2.5 10.4 3.8 15.8 1.3 5.5 2.6 11.2 3.9 17.2 2.7 11.9 5.5 24.5 8.5 37.9 1.5 6.7 3 13.5 4.5 20.5s3.1 14.1 4.5 21.5c1.4 7.3 2.8 14.7 4.3 22.3 1.5 7.5 3.1 15.2 4.6 22.9 3 15.5 5.6 30.7 8.4 45.3 2.8 14.6 5.7 28.7 8.2 42.1 2.5 13.5 4.4 26.3 6.8 38.2 1.2 5.9 2.6 11.6 4.3 16.9 1.7 5.3 3.8 10.2 6.3 14.6s5.5 8.3 8.5 11.7c3.1 3.4 6.2 6.5 9.5 8.8 1.6 1.1 3.3 2 5 2.8 1.7.7 3.4 1.1 5.1 1.4 3.4.4 6.5-.2 9.1-1.2 2.6-1 4.7-2.5 6.4-3.8 1.7-1.4 3-2.7 4-3.8 2-2.4 2.9-3.7 3-3.7zM1130.5 884.3c-.1 0-.3-1.4-.4-4.1-.2-2.7-.4-6.7-.6-11.8-.1-1.3-.1-2.6-.2-4s-.2-2.9-.3-4.5c-.2-3.1-.4-6.5-.7-10.1-.1-1.8-.2-3.7-.4-5.6-.2-1.9-.3-3.9-.5-6-.3-4.1-.7-8.5-1.1-13-1.7-18.2-4.2-39.9-7.7-63.9s-8.1-50.2-13.6-77.6c-5.5-27.4-11.4-53.4-16.9-77-1.4-5.9-2.8-11.6-4.1-17.2-1.3-5.6-2.6-11-3.9-16.2-2.5-10.5-5-20.2-8.6-28.5-3.5-8.4-8.1-15.2-13.3-20.2-5.1-5-10.5-8.3-15-10.5-4.6-2.2-8.4-3.3-11-3.9-.7-.2-1.2-.3-1.7-.4-.5-.1-.9-.2-1.3-.3-.7-.2-1-.3-1-.3 0-.1.4-.1 1.1 0 .3 0 .8.1 1.3.1.5.1 1.1.2 1.8.3 2.7.5 6.6 1.4 11.4 3.4 4.8 2 10.4 5.3 15.8 10.3 5.4 5 10.4 12.1 14.1 20.6 3.8 8.5 6.5 18.3 9.1 28.8 1.3 5.2 2.7 10.6 4.1 16.2 1.4 5.6 2.8 11.3 4.2 17.2 5.7 23.6 11.6 49.6 17.2 77 5.5 27.5 10 53.8 13.4 77.8 3.4 24 5.6 45.8 7.1 64.1.3 4.6.6 8.9.8 13.1.1 2.1.3 4.1.4 6 .1 1.9.2 3.8.2 5.7.1 3.6.3 7 .4 10.2.1 1.6.1 3.1.2 4.5 0 1.4 0 2.8.1 4.1.1 5.1.1 9.1 0 11.8-.2 2.5-.2 3.9-.4 3.9z" class="colorStroke000 svgStroke"></path><ellipse cx="1115.9" cy="888.2" stroke="#000" stroke-miterlimit="10" rx="8.1" ry="1.6" transform="rotate(29.657 1116.014 888.274)" class="colorStroke000 svgStroke"></ellipse><path stroke="#000" stroke-miterlimit="10" d="M610.9 229c-.2.1-1.2-2.5-2.7-7.1-1.5-4.6-3.6-11.4-6.1-19.7-2.5-8.4-5.3-18.3-8.3-29.4-1.5-5.6-3.1-11.4-4.7-17.5-.7-2.7-1.4-5.5-2.2-8.3-.1-.4-.2-.7-.3-1.1v-.1.1l-.1.3-.2.5c-.3.9-.7 1.8-1 2.8-.6 1.5-1.2 3.1-1.8 4.6-1.2 3-2.4 6-3.6 8.9-2.4 5.8-4.8 11.4-7.2 16.6-4.7 10.5-9.4 19.8-13.4 27.6-4.1 7.7-7.6 13.9-10.1 18-2.5 4.2-4 6.4-4.2 6.3-.2-.1.9-2.6 3.1-6.9 2.2-4.4 5.3-10.6 9.1-18.5 3.8-7.8 8.2-17.2 12.7-27.7 2.3-5.3 4.6-10.8 6.9-16.6 1.2-2.9 2.3-5.9 3.5-8.9.6-1.5 1.2-3 1.7-4.6l.9-2.4c.5-1.4 1-2.7 1.5-4.1.5-1.4 1-2.7 1.5-4.1l.8-2 .2-.5c.1-.1.1-.5.2-.2l.3 1.1 2.1 8.4c.9 3.5 1.7 6.9 2.6 10.2 1.6 6.1 3 11.9 4.5 17.5 2.9 11.1 5.5 21.2 7.7 29.6 2.2 8.4 3.9 15.2 5.1 20 1.2 4.5 1.7 7.1 1.5 7.2z" class="colorStroke000 svgStroke"></path><path stroke="#000" stroke-miterlimit="10" d="M607 230.1c-.4.3-3.7-3.8-8.7-10.6-2.5-3.4-5.4-7.4-8.7-12-1.6-2.3-3.3-4.7-5-7.1-.9-1.2-1.7-2.5-2.6-3.8l-.6-.9c-.2-.2-.4-.5-.4-.5-.1-.1-.4-.1-.5 0-.1 0 0 0-.2.1l-.3.3-.8.8c-.5.6-1.1 1.2-1.6 1.7-1.1 1.1-2.1 2.3-3.2 3.4-2.1 2.2-4.1 4.3-6 6.3-3.8 4-7.3 7.6-10.3 10.6-5.9 6-9.8 9.5-10.1 9.2s2.9-4.4 8.4-10.8c2.8-3.2 6.1-6.9 9.8-11.1 1.9-2.1 3.8-4.2 5.9-6.5 1-1.1 2.1-2.2 3.1-3.4.5-.6 1.1-1.2 1.6-1.7l.8-.9.5-.5c.2-.2.5-.4.8-.6 1.2-.7 2.8-.6 3.9.3.6.5.9.8 1.2 1.2.3.4.5.7.7 1 .9 1.3 1.7 2.6 2.6 3.8 1.7 2.5 3.3 4.9 4.9 7.2 3.1 4.6 5.8 8.8 8.1 12.4 4.4 7.3 7.1 11.8 6.7 12.1zM568.8 134.1c.8.4-4.3 12.2-10.6 26.7s-11.4 26.3-12.2 26c-.8-.3 2.9-12.7 9.2-27.3 6.3-14.6 12.8-25.8 13.6-25.4zM590 108.5c.8.5-4.2 8.8-9.7 19.4-5.6 10.5-9.6 19.3-10.5 19-.8-.3 1.9-9.8 7.6-20.5 5.6-10.8 11.9-18.4 12.6-17.9zM544.1 430.8c-.4 0-.9-7.4-.8-19.3 0-6 .2-13.1.6-21 .4-7.9 1-16.5 1.9-25.6.9-9.1 2-17.7 3.2-25.5 1.2-7.8 2.4-14.8 3.6-20.7 2.3-11.7 4.2-18.8 4.7-18.8.5.1-.7 7.4-2.4 19.1-.9 5.9-1.8 12.9-2.9 20.7-1 7.8-2 16.4-2.9 25.4-.9 9-1.6 17.6-2.2 25.5-.6 7.8-1 14.9-1.3 20.8-.7 12.1-1.1 19.4-1.5 19.4zM603 482.2c-.4.1-2.6-5.6-5.3-15.1-.7-2.4-1.4-5-2-7.8-.7-2.8-1.3-5.9-2-9-1.3-6.4-2.5-13.5-3.4-21-.9-7.5-1.4-14.6-1.7-21.2-.1-3.3-.2-6.4-.2-9.3 0-2.9 0-5.6.1-8.1.3-9.9 1.1-15.9 1.5-15.9.5 0 .5 6.1.8 15.9.1 2.4.2 5.1.3 8 .1 2.9.3 5.9.5 9.2.5 6.5 1.1 13.5 2 20.9.9 7.4 2 14.4 3.1 20.8.6 3.2 1.1 6.2 1.7 9 .5 2.8 1.1 5.4 1.6 7.8 2.1 9.7 3.5 15.6 3 15.8zM897.3 606.1c-.2.1-1.3-1.8-3-5.2-.9-1.7-1.9-3.9-3.1-6.4-1.2-2.5-2.5-5.3-3.9-8.5-2.8-6.3-6-14-9.3-22.5-3.3-8.6-6.8-18-10.2-28-3.4-10-6.3-19.7-8.9-28.5-2.5-8.8-4.6-16.8-6.2-23.6-.8-3.4-1.5-6.4-2.1-9.1-.6-2.7-1.1-5-1.4-6.9-.7-3.8-1-5.9-.8-6 .5-.1 2.7 8.2 6.5 21.5 1.9 6.7 4.2 14.6 6.8 23.3 2.7 8.7 5.7 18.3 9.1 28.3 3.4 10 6.8 19.4 9.9 28 3.2 8.6 6.1 16.3 8.7 22.7 5.1 12.8 8.3 20.7 7.9 20.9zM791.4 398c-.9.2-5.7-19.1-11.5-42.8-5.7-23.8-10.2-43.1-9.3-43.4.4-.1 2.1 4.6 4.4 12.3 2.3 7.7 5.2 18.4 8 30.3 2.9 11.9 5.2 22.8 6.6 30.7 1.6 7.9 2.2 12.8 1.8 12.9zM1102.4 894.9c-.5 0-1.3-6.6-2.5-17.4-1.2-10.8-2.8-25.7-4.7-42.2-1.9-16.4-3.8-31.3-5.2-42.1-1.3-10.8-2.1-17.5-1.6-17.5.4-.1 2 6.5 3.9 17.2s4.2 25.6 6.1 42.1c1.9 16.5 3.2 31.5 3.8 42.3.6 10.8.7 17.6.2 17.6z" class="colorStroke000 svgStroke"></path></g><g id="Layer_3"><path fill="#00c6ff" d="M586.7 729.1c3.2-4.1 6.3-8 9.9-11.7 3.4-3.4 6.6-6.9 9.5-10.7 1.1-1.5-1.1-3.8-2.6-2.6-7.9 6.1-13.4 15.4-18 24.1-.4.7.7 1.7 1.2.9zM606.6 734.8c6.7-5.7 14.4-10.5 22.4-14.3.6-.3.2-1.3-.5-1.1-8.9 3.1-16.4 7.7-23.4 13.9-1.1.9.4 2.4 1.5 1.5zM627.4 760.4c7.4-1.5 14.7-2.8 22-4.8 6.5-1.8 14.1-3.3 20-6.6 1.7-.9 1-3.9-1-3.8-6.8.5-14 3.3-20.4 5.4-7.3 2.3-14 5.2-21.1 8-1.1.4-.7 2 .5 1.8z" class="colorff4f03 svgShape"></path><path fill="#1e1d1d" d="M247.3 912.5c6.1-11.5 11.3-21 15.3-28 8.7-15.3 15.6-27.5 26-42.7 4.1-6 7.6-10.8 10-14 10.3 5.7 21.7 12.9 33.3 22 9.9 7.7 18.2 10.1 18 15.3-.3 6.5-11.9 12.2-12.7 11.3-.3-.4 1.3-2.4 3.3-4.7 1.8 3.3 3.6 6.7 5.3 10-2.6 3.1-6.7 8.1-12 14-9.7 10.9-12.8 13.1-20.7 22-13 14.7-11.9 16.7-16 18.7-7.3 3.7-21.3 1.9-49.8-23.9zM349.7 829.2c5.4.6 12.9.8 21.5-1.4 14.2-3.6 22.8-11.4 24.5-12.9 2.5-2.3 4.4-4.6 5.7-6.2 3.4 11.2 8.7 16.5 13.2 19.1 7 4.2 15.5 4.3 16.8 9.3.6 2.4-.8 4.6-1 4.9-1.8 2.9-4.6 2.4-13.4 4.7-7.6 2-11 3.7-14.6 1.7-.9-.5-1.4-1-1.8-1.4-5-4.4-13.2-3.8-20.7-4-10.9-.3-20-.6-25.8-6.3-2.5-2.4-3.8-5.5-4.4-7.5zM365.1 1046.4c-1.4 4.5-4.1 12.8-7.5 23.3-8.2 25-12.3 35.8-8.3 39 2.1 1.7 5.4.6 7.5 0 12-3.7 10.2-17.6 24-29.3 7.3-6.1 11.2-5.2 15.8-12 1.1-1.7 6.3-9.6 3.8-17.3-.7-2-1.1-1.9-13.1-13.3-3.9-3.7-5.8-5.6-9.4-7-2.1-.8-6.5-2.5-9.8-.8-4.2 2.4-5.9 9.6-3 17.4zM656.6 965.8c.3-5.9 6-10 13.1-14.8 21.9-14.9 32.9-22.3 35.4-19.8.5.5 1.2 1.6-1.3 9.7-4.3 14.1-10.5 23.9-13.9 29.1-8.5 12.7-12.8 19-19.4 19.4-1.1.1-.3-.1-9.7-1.3-6.8-.8-9.3-1-10.5-3-1-1.6-.9-3.9 0-5.5 1.4-2.5 4.1-1.7 5.9-3.8 2.3-2.5.2-6.3.4-10z" class="color1e1d1d svgShape"></path><path fill="#e5c798" d="M315.3 496.6c-8.9 11.2-15.1 21.3-19.2 28.8-12.5 22.8-18.2 43.7-22.4 59.5-1.8 6.7-3 12.3-3.8 16 3.4-2.6 6.8-5.1 10.2-7.7-.7 5.1-1.2 12.7 0 21.7 1.3 9.4 4.5 32.8 19.8 38.4 5.9 2.2 14.1 1.9 19.2-2.6 6.7-5.8 4.9-15.9 5.1-28.1.4-22.4 7.1-20.5 14.1-56.3 6.1-31.5 3.6-46.7 11.5-49.3 8.5-2.8 18.4 12.5 32 8.3 4.4-1.4 6.2-3.9 10.2-3.2 6.4 1 10.3 8.6 12.8 13.4 5.3 10.3 5.1 18 6.4 17.9 1.5-.1 3.8-12 1.9-24.9-.8-5.6-2.7-18.7-12.8-30.7-18-21.4-45.9-20.1-50.5-19.8-6.8.3-17.7 1-26.9 9-3.8 3.4-6.2 7-7.6 9.6zM406.3 584.1c1.8.3 1.1 16.1-1.7 34.4-1.7 11.1-3.7 20.1-5.2 26.1-4.1-2.9-10.9-6.8-20-9.1-7.6-1.9-14.1-2-18.7-1.7l-.9-14.4c2.5.9 6.3 1.9 10.9 1.7 10.2-.3 17.3-5.9 19.6-7.8 13.7-11.3 14.1-29.5 16-29.2z" class="colore5c798 svgShape"></path><path fill="#a09f92" d="M438.5 805.4c-4.9 16.3-7.3 29.8-8.6 39.2-2.8 20.5-2 33.1-5.7 66-.7 6.5-1.4 11.8-1.9 15.3 28.3-11.7 59.9-22.9 94.7-32.5 16.1-4.5 31.8-8.2 46.9-11.5 6.1-23.3 11.5-49.2 15.3-77.5 1.7-12.5 2.9-24.7 3.8-36.3-48.2 12.5-96.3 24.9-144.5 37.3z" class="colora09f92 svgShape"></path><path fill="#a09f92" d="M344.8 873.3c19.9 11.3 35.2 21.8 45.9 29.6 13.5 9.9 24.1 19.6 29.6 16.3 2.5-1.5 2.3-4.7 3.6-17.6 1-9.3 2.6-18.6 3.7-27.9.8-7 2.1-17.6 3.7-30.7-28.7 10.2-57.6 20.3-86.5 30.3z" class="colora09f92 svgShape"></path><path fill="#e2b8a6" d="M393.4 522.3c4.3 8.8 11.4 26.7 8.3 48.9-1.6 11-4.5 31.3-21.3 41.3-10.7 6.3-22.1 5.6-27.5 4.8 1.8 5.5 2.4 10.1 2.6 13.4.3 4.5 0 8.7 1.5 9.2 1.4.4 2.6-3.1 5.3-3.2 2.1-.1 4.2 1.8 5 3.5 2 4.5-2.9 12.1-8.3 15.7-9.8 6.7-26.1 3.9-32.3-4.8-2.2-3-1.7-4.8-2.1-22-.4-22.7-1.4-30.2-4.8-37.8-3.1-7-6.2-10.3-6.2-10.3-4.3-5.5-6.9-6.2-7.6-9.6-.9-4.4 2-10.3 6.9-12.4 6.9-2.9 13.8 3.5 14.4 4.1 3.3 3.2 3.3 6.2 4.8 6.2 3.2 0 6-12.1 6.9-21.3.5-5.4.3-10 0-13.1 2.5-6.7 5-13.3 7.6-20 1.6-1.8 3.2-3.7 4.8-5.5 5 3 11.7 6.3 20 8.9 8.5 2.6 16.1 3.6 22 4zM276.5 772c1.7 7.9 5.1 20 13.2 32.6 7 10.9 14.6 17.5 26.2 27.6 7.1 6.2 16.8 14 29.2 22.1 1.6 1.7 3.9 4.2 6.2 7.7 2.7 4.1 2.2 4.5 4 6.4 3 3.4 6.7 4.7 13 7 2.5.9 4.3 1.6 7.1 2.1 7.4 1.5 9.7-.2 15.6 1.4 5.4 1.5 5 3.3 8.5 3.5 6 .3 12.6-4.7 14.9-11.3.6-1.6 2.2-6.4 0-10.6-4.4-8.5-20.8-8.1-20.6-9.4.1-.9 7.5-.2 7.9-2 .3-1.3-2.9-3.3-5.9-4.5-5.3-2-9.6-1-13.5-.6-9.1 1-18-.9-23.3-3.4-7.5-3.7-11.2-10-13.8-14.2-13.7-22.1-19.2-31.1-33.2-40.9-2-1.4-3.7-2.4-4.7-3 1-14.8-1-18.7-3-19.4-3.6-1.2-7.8 7.6-18.1 9.5-4.2.5-7.6-.1-9.7-.6zM441 726.9c7.2 9.7 14.3 17 19.7 22.1 7.1 6.7 17.2 15.9 32.9 23 4.4 2 8.2 3.4 10.8 4.2 11.4-2.8 22.9-5.6 34.3-8.5-.8-1.3-2.2-3.2-4.2-5.2-4.8-4.6-9.9-5.9-13.2-7-11.4-3.9-10.4-7.9-26.8-16-3.2-1.6-8.1-3.9-14.6-6.1-3.4-5-8.3-12.4-13.6-21.6-4.7-8.2-6.2-11.5-8.9-11.7-2.4-.2-7.9 2-16.4 26.8zM247.8 919.8c-3.9 13.9-7.7 25-10.5 32.6-6.2 17.1-10.6 26.2-6.3 32 2.5 3.4 6.6 3.9 11 4.7 0 0 5.7 1.1 39.4 14.2 9.7 3.8 22.8 10.9 36.8 25.7.7-3.2 2.2-8.1 5.8-13.1 5.4-7.7 12.5-11.2 15.8-12.6-6.2-9.4-17-22.8-34.1-33.6-6.7-4.2-13.1-7.2-18.9-9.5 2.6-4.3 5.3-9 7.9-14.2 1.5-3 2.9-6 4.2-8.9-5.6-4.7-13.8-10.5-24.7-15.2-9.4-4.1-18-6.2-24.7-7.4M447.9 919.8c10.8-.6 26.3.1 42 7.9 8 4 7.7 5.7 18.4 12.6 11.8 7.7 16.9 8.6 56.2 23.6 18.6 7.1 30.2 11.7 33.1 7.9 2-2.7-2.1-6.9-1.1-13.7 1.1-7.6 7.8-13 14.2-16.8-7.8-4.7-20.9-12.6-37.8-22.6-16.7-9.9-24.9-14.6-37.3-17.9-9.1-2.4-16.8-3-22.1-3.2-21.9 7.5-43.8 14.8-65.6 22.2z" class="colore2b8a6 svgShape"></path><path fill="#00c6ff" d="M273.4 763c0 1.9.2 5.2 2.4 7.3 4.8 4.5 14.6-.4 17-1.6 5-2.5 11.5-7.5 10.5-9.7-.7-1.9-6.8-2.3-29.9 4zM312.6 655.9c1.3 3.4 4.8 10.7 12.6 16.1 11.5 7.9 26.4 7.5 37.2 1.8 3.5-1.9 15.1-7.9 16.8-20.4 1.2-8.9-3.3-16-4.9-18.2-1.7-.6-4.5-1.3-8-.9-1.9.2-6 1-6.1 2.4-.1 1.8 6.5 1.9 7.7 5.5 1.3 3.9-4 8.8-6 10.7-2.3 2.2-8.3 7.7-17.1 7.7-7.5 0-15.1-4.1-19.2-9.8-1.9-2.6-2.4-4.9-4.3-5.1-2.8-.4-6.2 5.2-8.7 10.2zM429 729.5c.1-3.3.5-8.1 2.1-13.6 1.5-5.2 5.1-17.6 13.3-19.5 3.1-.7 7 0 8 2.1.8 1.8-.9 3.9-2.7 6.5-1.5 2.3-8 12.1-10 21-1.7 7.6.3 12.3-1.5 13-2 .7-5.7-4.1-9.2-9.5z" class="colorff4f03 svgShape"></path><path fill="#ede1dd" d="M506 824.6c4.7-6 12.5-7.9 18-5.2 7.4 3.7 8.7 14.6 4.3 21.5-4.4 7-15 10.4-21.5 5.2-5.6-4.6-6.7-14.5-.8-21.5z" class="colorede1dd svgShape"></path><path stroke="#000" stroke-miterlimit="10" d="M404.3 537.5c.2 0 .9 1.9 1.8 5.5s2.2 8.8 3 15.4c.8 6.6 1.2 14.7-.3 23.5-.8 4.4-2.1 8.9-4 13.4-1 2.2-2.1 4.5-3.5 6.6-1.4 2.1-2.9 4.2-4.6 6.2-3.5 3.9-7.7 7-12.1 9.2-2.2 1.1-4.5 2-6.7 2.7-2.3.7-4.5 1.1-6.8 1.5-2.2.3-4.5.4-6.6.3-2.1-.1-4.2-.3-6.2-.7-3.9-.8-7.5-2.1-10.5-3.6-6.1-3.1-10.1-7-12.5-9.9-2.4-2.9-3.3-4.8-3.1-4.9.2-.1 1.4 1.5 4 4.1 2.6 2.5 6.7 6 12.5 8.6 2.9 1.3 6.3 2.4 10 3 1.8.3 3.8.5 5.8.5s4-.1 6.1-.4c8.3-1.2 17.1-5.3 23.6-12.6 1.6-1.8 3-3.7 4.3-5.7 1.3-2 2.4-4.1 3.3-6.2 1.9-4.2 3.2-8.5 4-12.7 1.6-8.4 1.5-16.2 1-22.7s-1.4-11.8-1.9-15.4c-.6-3.6-.9-5.6-.6-5.7zM361.1 557.3c-.9-.3-.1-4.5-.1-9.5.1-5-.7-9.2.2-9.5.4-.1 1.2.8 1.9 2.5s1.2 4.2 1.2 7-.6 5.3-1.3 7c-.7 1.8-1.5 2.7-1.9 2.5z" class="colorStroke000 svgStroke"></path><path stroke="#000" stroke-miterlimit="10" d="M398.1 555.2c-.9-.2-1-3.4-1.3-7.2-.3-3.8-.8-7 0-7.3.4-.2 1.1.5 1.8 1.7.7 1.3 1.3 3.1 1.5 5.3.2 2.2-.1 4.1-.5 5.5-.5 1.3-1.1 2.1-1.5 2zM379.6 574.5c-.2-.5 1.6-1.4 3.2-3.9.8-1.2 1.5-2.9 1.9-4.8.4-1.9.4-4.1.1-6.4-.3-2.3-.8-4.6-1.2-6.7-.5-2.1-.9-3.9-1.3-5.5-.7-3.1-1.1-5.1-.7-5.3.4-.2 1.6 1.6 2.9 4.6.7 1.5 1.3 3.4 2 5.5.6 2.1 1.3 4.4 1.6 7 .3 2.6.2 5.2-.5 7.5-.6 2.3-1.8 4.2-3 5.5-1.2 1.3-2.5 2.1-3.4 2.4-.9.4-1.5.3-1.6.1zM389.7 584.3c.2.3-1.4 2-4.8 3.5-.4.2-.9.4-1.3.6-.5.2-1 .3-1.5.5-1 .3-2.2.5-3.4.8-2.4.4-5.2.5-8 .1s-5.4-1.1-7.7-2.1c-1.1-.5-2.2-1-3.1-1.6-.5-.3-.9-.5-1.3-.8l-1.2-.9c-2.9-2.3-4.1-4.3-3.8-4.6.4-.4 2.1 1 5.1 2.6l1.2.6c.4.2.9.4 1.3.6.9.4 1.9.8 2.9 1.2 2.1.7 4.5 1.3 7 1.6 2.6.3 5 .3 7.2.1 1.1-.1 2.2-.2 3.1-.4.5-.1 1-.2 1.4-.3.5-.1.9-.2 1.3-.3 3.3-.7 5.3-1.6 5.6-1.2z" class="colorStroke000 svgStroke"></path><path stroke="#000" stroke-miterlimit="10" d="M355.3 578.8c0 .5-.4.8-.7 1.2-.4.4-.7.7-1.2 1-.5.3-.9.6-1.3.9-.4.2-.9.4-1.4.3-.4-.1-.8-.6-.7-1.4 0-.8.5-1.8 1.4-2.4.9-.7 2-.9 2.7-.7.9.2 1.3.7 1.2 1.1zM362.7 524.3c-.2.4-1 .4-2.1.6-.5.1-1.1.2-1.8.4-.6.2-1.3.5-2 .9s-1.3.8-1.8 1.3l-1.3 1.3c-.7.8-1.1 1.5-1.6 1.5-.4 0-.8-.9-.5-2.4.2-.7.6-1.6 1.1-2.4.6-.8 1.4-1.5 2.4-2.1 1-.5 2.1-.9 3-1 1-.1 1.9 0 2.6.3 1.6.4 2.2 1.3 2 1.6zM400.1 531c-.7.6-2.7-.5-5.3-1.4-2.5-.9-4.9-1.3-5-2.2-.1-.4.6-.9 1.7-1.2 1.1-.3 2.7-.2 4.4.3 1.7.6 2.9 1.6 3.7 2.5.6.9.8 1.6.5 2zM320.8 580.6c.1.2-.3.8-1.6 1.4-1.2.6-3.4 1-5.8.3-1.2-.3-2.5-1-3.7-1.9-1.2-1-2.2-2.3-3-3.8-1.5-3-2-6.8-1-10.6 1-3.7 3.3-7 6.4-8.6.8-.4 1.6-.7 2.4-.9.8-.2 1.6-.3 2.4-.3 1.5 0 2.9.3 4.1.9 1.2.5 2.1 1.2 2.8 1.9.7.7 1.2 1.4 1.5 2.1.6 1.3.5 2.1.3 2.1-.2.1-.6-.6-1.3-1.4-.4-.4-.9-.9-1.6-1.4-.7-.4-1.5-.8-2.5-1.1-1.9-.5-4.4-.6-6.5.8-2.2 1.3-4 3.8-4.8 6.8-.8 3-.5 6.1.6 8.5.5 1.2 1.2 2.2 2.1 3 .8.8 1.7 1.4 2.7 1.8 1.9.8 3.6.8 4.7.7 1-.3 1.7-.5 1.8-.3z" class="colorStroke000 svgStroke"></path><path stroke="#000" stroke-miterlimit="10" d="M320.8 574.2c-.4-.1-.6-1-.9-2.1-.4-1.1-1.1-2.5-2.3-3.6-.6-.6-1.2-1-1.8-1.3-.3-.1-.6-.3-.9-.4-.3-.1-.6-.2-.7-.2h-.5c-.1.1-.2.2-.2.3 0 .2.2.1.1 0-.2-.2-.8-.2-1-.8-.1-.3-.1-.6 0-1 .2-.4.6-.7 1.1-.8.5-.2 1-.2 1.5-.2s1 .1 1.6.2c1.1.3 2.2.9 3.1 1.8.9.9 1.6 1.9 1.9 2.9.4 1 .5 2 .4 2.8-.2 1.7-1 2.5-1.4 2.4z" class="colorStroke000 svgStroke"></path><path stroke="#000" stroke-miterlimit="10" d="M314.9 575.8c-.4.2-1.1 0-1.5-1-.2-.5-.3-1.1-.2-1.7.1-.6.4-1.3.8-1.9.4-.6 1-1 1.6-1.3.6-.3 1.2-.4 1.7-.3 1 .1 1.5.7 1.4 1.1-.1.5-.5.8-.9 1.1-.4.4-.7.8-1.2 1.3-.4.6-.7 1-.9 1.5-.2.4-.4.9-.8 1.2zM323.1 633.5c-1-.1.4-10.9-1.4-24-1.8-13.1-6.1-23.1-5.2-23.5.4-.2 2 2.1 3.8 6.2.9 2 1.8 4.6 2.6 7.4.8 2.9 1.5 6 2 9.4.5 3.4.7 6.7.7 9.6 0 3-.2 5.6-.5 7.8-.7 4.5-1.6 7.1-2 7.1zM358.6 639.4c-.9-.2-.8-3.7-.5-7.8.4-4.1.9-7.6 1.8-7.6.9-.1 1.8 3.5 1.5 7.9-.4 4.4-1.9 7.7-2.8 7.5zM304.7 654.7c0 .1-.4 0-1.1-.2-.7-.2-1.8-.4-3.1-.9-2.7-.9-6.6-2.5-11-5.6-2.2-1.6-4.5-3.5-6.6-6-2.2-2.5-4-5.6-5.5-9-1.5-3.4-2.8-7.1-3.9-11.1-.3-1-.5-2-.8-3-.2-1-.5-1.9-.7-2.9-.2-.7-.3-1.4-.5-2.2v.1l-.1.2-.1.3-.2.6c-.2.6-.4 1.2-.7 1.8-1 2.6-1.9 5.3-2.8 8-1.8 5.5-3.5 11.2-5 17.1l-2.9 11.7-.2-12.1c-.1-8.1.1-16.6.9-25.2 1.5-16.6 4.9-32.2 9.2-46 4.3-13.8 9.5-25.8 14.7-35.3 5.2-9.6 10.1-17 13.7-21.9 3.6-4.9 5.9-7.4 6-7.3.2.1-1.7 2.9-5 8s-7.8 12.6-12.7 22.2c-4.9 9.6-9.8 21.5-13.9 35.2-4.1 13.6-7.3 29-8.8 45.4-.8 8.5-1.1 16.9-1 24.9l-3.1-.4c1.5-6 3.3-11.8 5.2-17.3.9-2.8 1.9-5.4 2.9-8.1.3-.9.7-1.8 1-2.6.4-1.1.8-2.1 1.3-3.2.4-1 .8-2 1.3-3l.6-1.5.3-.7.2-.4c.1-.1.1-.3.1-.3.8 3.7 1.5 7.4 2.2 10.9.2 1.1.5 2.2.7 3.3.2 1 .5 2 .7 3 1 3.9 2.2 7.6 3.6 10.9 1.4 3.3 3 6.2 4.9 8.6 1.9 2.4 4 4.3 6.1 5.9 4.1 3.2 7.8 5 10.4 6.2 1.3.6 2.3 1 2.9 1.3.5.3.8.5.8.6zM327.5 561.7c-.1 0-.2-.4 0-1.1.2-.6.7-1.6 1.9-2.3l.6-.4.4.7c.7 1 1.4 2.2 2 3.8.1.3.2.7.4 1.1.1.2.1.4.2.5.1.3.2.7.2 1v.4l.1-.1c.2-.3.3-.5.5-.8.1-.3.2-.5.3-.7l.1-.2.1-.2.1-.2.2-.5c1-3 1.5-6.4 1.6-10 .2-4.4.1-8.7.1-12.6-.1-3.9-.2-7.4-.3-10.4-.2-5.9-.3-9.6.2-9.7.4-.1 1.3 3.5 2.1 9.5.4 3 .7 6.5 1 10.4.2 4 .4 8.3.2 12.9-.2 3.8-.7 7.5-2 10.8l-.1.3c0 .1-.1.2-.2.4l-.4.9-.4.9c-.1.3-.3.6-.5.8-.6 1.2-1.3 2-1.9 2.8-.3.4-.6.8-1 1.2-.3.4-.7.8-1 1.2l-.2.3-.2.2h-.2c-.1 0-.2.1-.3.1h-.1l-.2.1c.1-2.5.2-4.8.1-6.4 0-.8-.2-1.5-.3-2.1-.1-.2-.1-.5-.2-.7 0-.2-.1-.4-.1-.6-.4-1.5-.8-2.7-1.3-3.7l1 .3c-.9.4-1.5 1-1.9 1.4-.3.5-.5.7-.6.7z" class="colorStroke000 svgStroke"></path><path stroke="#000" stroke-miterlimit="10" d="M336.3 540.6c-.4-.3.4-2.1 1.8-4.8 1.4-2.8 3.5-6.4 5.1-10.7 1.7-4.2 2.4-8.3 2.5-11.2.2-3-.1-4.9.3-5 .4-.1 1.5 1.6 2 4.9.5 3.2.1 7.9-1.8 12.5-1.8 4.6-4.3 8.3-6.2 10.7-1.9 2.5-3.3 3.8-3.7 3.6zM382.4 519.5c0 .4-2 1-5.2 1-1.6 0-3.6-.1-5.7-.5s-4.5-1-6.8-1.8c-2.4-.9-4.5-1.9-6.4-3-1.9-1.1-3.5-2.2-4.7-3.3-2.5-2.1-3.7-3.8-3.4-4.1.6-.7 6.7 4.2 15.6 7.3 8.8 3.3 16.6 3.4 16.6 4.4z" class="colorStroke000 svgStroke"></path><path stroke="#000" stroke-miterlimit="10" d="M415.8 555.8c-.2-.1.3-2.2 1-6.2.7-3.9 1.5-9.7 1.1-16.8-.5-7-2.2-15.4-7-23.4-2.4-4-5.4-7.8-9-11.4-3.6-3.5-7.8-6.6-12.6-9.1-4.7-2.5-9.7-4.4-14.5-6.1-4.8-1.7-9.5-2.7-14.2-3.2-4.6-.5-9.1-.5-13.2 0s-7.9 1.4-11.2 2.6c-6.7 2.4-11.6 5.5-14.9 7.7-3.3 2.3-5 3.7-5.2 3.5-.1-.1 1.3-1.9 4.4-4.5 3.1-2.6 8-6.1 14.8-8.9 3.4-1.4 7.3-2.5 11.6-3.1 4.3-.6 9-.8 13.8-.3 4.8.4 9.9 1.4 14.9 3.2 2.5.9 4.9 1.8 7.5 2.8 2.5 1 5.1 2.1 7.5 3.5 5 2.6 9.5 6 13.3 9.7 3.8 3.8 6.9 7.9 9.3 12.1 1.2 2.1 2.2 4.3 3.1 6.5.4 1.1.8 2.2 1.1 3.2.4 1.1.6 2.2.9 3.2 1 4.2 1.5 8.3 1.6 11.9.1 7.4-1.1 13.2-2.1 17.1-.8 4-1.8 6-2 6z" class="colorStroke000 svgStroke"></path><path stroke="#000" stroke-miterlimit="10" d="M409.9 558.8c-.5 0-.9-2.7-1.9-6.9-.3-1-.5-2.2-.9-3.4-.3-1.2-.8-2.5-1.2-3.8-1-2.7-2.1-5.5-3.6-8.4-1.5-2.9-3.1-5.5-4.7-7.9-.8-1.1-1.6-2.3-2.4-3.2-.8-1-1.5-1.9-2.2-2.7-2.8-3.3-4.8-5.2-4.5-5.5.2-.3 2.7.9 6.1 3.9.8.7 1.7 1.6 2.6 2.6.9.9 1.8 2 2.8 3.2 1.8 2.4 3.7 5.1 5.2 8.2 1.6 3.1 2.7 6.2 3.6 9 .4 1.4.8 2.8 1 4.1.3 1.3.4 2.5.5 3.6.5 4.4.1 7.2-.4 7.2zM405 629.8c-.3-.1 0-2.4.8-6.5l1.4-7 .2 7.2c.1 4.8-.3 12.1-3 20.4l-2.4-1.5c4.2-4.4 7.5-10.9 8.3-18.1.4-3.1.1-6.2-.3-9.3-.4-3-1-6.1-1.3-9-.7-5.8-.8-11-.7-15.4.2-8.8 1.2-14.1 1.6-14.1.5 0 .2 5.4.7 14.1.2 4.3.6 9.4 1.4 15.1.4 2.8.9 5.7 1.4 8.9.5 3.1.8 6.6.4 10.1-.9 8-4.7 15.1-9.5 19.8l-4.5 4.5 2.1-6c2.8-7.8 3.7-14.8 4.1-19.5l1.6.2c-1.1 3.9-2 6.1-2.3 6.1zM283.3 809.4c-.2.1-1.4-1.8-3.4-5.4-2-3.6-4.7-8.9-7.7-15.6-3-6.7-6.3-14.8-9.2-24.1-2.9-9.3-5.2-19.9-6.1-31.1-.4-5.6-.4-11.2-.1-16.5.3-5.3 1.2-10.4 2.2-15.2.3-1.2.6-2.4.8-3.5.3-1.2.7-2.3 1-3.4.6-2.2 1.4-4.3 2.2-6.4l1.2-3c.4-1 .8-1.9 1.2-2.8.4-.9.9-1.8 1.3-2.7.2-.4.4-.9.6-1.3.2-.4.5-.8.7-1.2 1.8-3.2 3.7-6 5.4-8.4.9-1.2 1.7-2.2 2.5-3.2.8-.9 1.6-1.8 2.3-2.5.4-.4.7-.7 1-1.1.3-.3.7-.6.9-.9.6-.5 1.1-1 1.5-1.3.8-.7 1.3-1 1.4-.9.1.1-.2.6-.9 1.4-.3.4-.8.9-1.3 1.5-.3.3-.5.6-.8 1-.3.4-.6.7-.9 1.1-.6.8-1.3 1.7-2.1 2.7-.7 1-1.5 2.1-2.3 3.3-1.6 2.4-3.3 5.2-4.9 8.4l-.6 1.2c-.2.4-.4.8-.6 1.3-.4.9-.8 1.7-1.2 2.6-.4.9-.7 1.8-1.1 2.8-.4 1-.8 1.9-1.1 2.9-.6 2-1.4 4.1-1.9 6.3l-.9 3.3c-.2 1.1-.5 2.3-.8 3.4-.9 4.7-1.7 9.6-1.9 14.8-.3 5.2-.3 10.6.1 16 .9 11 3.1 21.3 5.7 30.5 2.7 9.2 5.7 17.3 8.4 24.1 2.7 6.8 5.1 12.2 6.7 15.9 2.1 3.8 2.9 5.9 2.7 6zM299.1 714.8c-.9.1-2.3-5-1.8-11.5.4-6.5 2.5-11.4 3.3-11.1.9.2.3 5.2-.1 11.4-.4 6-.5 11-1.4 11.2zM307.4 782.2c-.9.2-3.3-7.8-4-18.1-.8-10.3.5-18.6 1.4-18.5.9.1 1.1 8.2 1.9 18.3.6 10 1.6 18.1.7 18.3z" class="colorStroke000 svgStroke"></path><path stroke="#000" stroke-miterlimit="10" d="M357.7 839.8c-.3.3-4.2-2.4-9.4-8.1-2.6-2.8-5.5-6.3-8.6-10.3-3-4-6.2-8.5-9.6-13.2-3.3-4.7-6.6-9.1-9.7-12.9-3.1-3.9-6-7.2-9-9.1-3-2-5.9-2.4-7.9-2.3-2 .1-3.1.6-3.2.4-.1-.1.8-1.1 3-1.6s5.7-.4 9.2 1.6c1.8 1 3.5 2.3 5.2 3.9 1.7 1.6 3.2 3.4 4.9 5.3 3.3 3.8 6.7 8.2 10 13 3.3 4.7 6.5 9.2 9.4 13.3 2.9 4.1 5.5 7.7 7.9 10.6 4.8 5.7 8.1 9 7.8 9.4zM349.1 863.2c-.5.7-14.3-8.2-30.6-20.3-16.2-12.1-28.7-22.9-28.1-23.6.6-.7 13.9 8.9 30.1 21 16.2 12.1 29.1 22.2 28.6 22.9zM397 706c-.4-.1-.6-1.5-.3-3.6.3-2.2 1.1-5.1 2.4-8.1 1.4-3 3-5.6 4.4-7.2 1.4-1.7 2.5-2.5 2.9-2.2.7.6-1.8 5.1-4.3 10.8-2.5 5.5-4.1 10.4-5.1 10.3z" class="colorStroke000 svgStroke"></path><path stroke="#000" stroke-miterlimit="10" d="M391.6 754.5c-.3-.5 2.7-2.2 6-6.4 1.6-2.1 3.2-4.8 4.5-8 1.3-3.2 2.2-7 2.4-11 .4-8.1-1.6-15.4-3.3-20.5-1.8-5.1-3.2-8.3-2.7-8.5.4-.2 2.5 2.5 4.9 7.6 1.2 2.5 2.4 5.7 3.3 9.3.9 3.6 1.4 7.8 1.1 12.2-.3 4.4-1.4 8.5-2.9 12-1.6 3.5-3.6 6.3-5.6 8.4-2 2.1-3.9 3.4-5.3 4.1-1.5.8-2.3 1-2.4.8zM387.9 799.8c-.9-.3 1.5-10.2 3-22.7 1.6-12.4 1.7-22.7 2.6-22.7.9-.1 2.2 10.4.6 23.1-1.6 12.8-5.4 22.5-6.2 22.3z" class="colorStroke000 svgStroke"></path><path stroke="#000" stroke-miterlimit="10" d="M412.6 826.7c-.8.4-5.5-7-11.7-15.9-6.2-8.9-11.5-15.9-10.8-16.5.6-.6 7.2 5.6 13.5 14.7 6.3 9 9.8 17.3 9 17.7zM479.8 733.7c-.2.1-1.4-1.5-3.4-4.6-.5-.8-1.1-1.6-1.7-2.6-.6-.9-1.3-1.9-2-3-1.5-2.1-3.1-4.6-5-7.2-1-1.3-2-2.7-3-4.2-1-1.4-2.2-2.9-3.4-4.4-2.3-3.1-4.9-6.2-7.7-9.6-5.6-6.6-12-13.6-19.1-20.5-7.2-6.9-14.4-13-21.2-18.4-3.4-2.6-6.7-5.1-9.8-7.3-1.6-1.1-3.1-2.2-4.5-3.2-1.5-1-2.9-1.9-4.3-2.8-2.7-1.9-5.2-3.4-7.4-4.8-1.1-.7-2.1-1.3-3.1-1.9-1-.6-1.8-1.1-2.6-1.6-3.1-1.9-4.8-3.1-4.7-3.3s2 .6 5.3 2.1c.8.4 1.8.8 2.8 1.3 1 .5 2.1 1.1 3.2 1.7 2.3 1.3 4.9 2.6 7.7 4.4 1.4.9 2.9 1.8 4.4 2.7 1.5 1 3.1 2 4.7 3.1 3.3 2.1 6.6 4.6 10.1 7.2 6.9 5.3 14.3 11.5 21.6 18.4 7.2 7 13.6 14.2 19.2 20.9 2.7 3.4 5.3 6.7 7.5 9.9 1.1 1.6 2.2 3.1 3.3 4.6 1 1.5 1.9 2.9 2.8 4.3 1.8 2.7 3.3 5.3 4.7 7.6.7 1.1 1.3 2.2 1.8 3.2s1 1.9 1.4 2.7c1.8 3.4 2.6 5.2 2.4 5.3zM472.4 766.1c-.2.4-4.6-1.3-10.7-5.6-3.1-2.1-6.6-4.8-10.4-7.9-3.8-3.1-7.9-6.5-12.3-10.1-17.3-14.5-30.8-26.9-30.3-27.6.6-.7 15.1 10.5 32.3 25.1 4.3 3.6 8.4 7.1 12.1 10.3 3.7 3.2 7 6.1 9.8 8.4 5.9 4.6 9.7 7 9.5 7.4zM537.6 764c-.1.4-4.1-.2-9.9-2.9-2.9-1.3-6.2-3.2-9.8-5.4-3.6-2.2-7.3-4.8-11.3-7.5-4-2.6-7.8-5-11.5-6.8-3.6-1.8-7-3.2-10-4-5.9-1.7-9.8-1.6-9.8-2.1 0-.2 1-.5 2.8-.6 1.8-.2 4.4-.1 7.6.5 3.2.6 6.9 1.8 10.7 3.5 3.9 1.8 7.9 4.1 12 6.8 4 2.7 7.7 5.4 11.1 7.7 3.4 2.3 6.5 4.3 9.2 5.9 5.4 3.1 9.1 4.4 8.9 4.9z" class="colorStroke000 svgStroke"></path><path stroke="#000" stroke-miterlimit="10" d="M509.1 778.5c-.2.9-9.8-.4-21.1-4.1-11.3-3.7-19.8-8.4-19.4-9.2.4-.8 9.3 2.5 20.4 6.1 11.1 3.7 20.3 6.3 20.1 7.2zM317.8 652.3c-.7-.6 1.1-3.7 1.9-7.9.9-4.1.5-7.7 1.4-8 .4-.1 1.1.7 1.6 2.3.5 1.6.7 3.9.2 6.4-.5 2.5-1.7 4.5-2.7 5.8-1.1 1.2-2.1 1.7-2.4 1.4zM367.3 642.4c.2 0 .3.9 0 2.3-.2 1.4-.9 3.5-2.3 5.8-1.3 2.3-3.4 4.8-6.3 6.8-2.9 2.1-6.6 3.7-10.7 4.2-4.2.4-8.1-.4-11.4-1.8-3.3-1.4-5.8-3.4-7.6-5.4-1.8-2-2.9-3.8-3.4-5.2-.6-1.4-.7-2.2-.5-2.3.5-.2 1.9 2.6 5.5 5.8 1.8 1.6 4.2 3.1 7.2 4.3 2.9 1.1 6.4 1.7 9.9 1.4 3.5-.4 6.8-1.7 9.4-3.4 2.6-1.7 4.7-3.7 6.1-5.7 2.8-3.9 3.6-7 4.1-6.8zM225.5 984.4c-.2 0-.2-2.2.1-6.2.1-1 .1-2.1.2-3.3.1-1.2.3-2.5.4-3.9.3-2.8.7-6.1 1.3-9.6.3-1.8.6-3.6.9-5.6.3-1.9.8-3.9 1.2-6 .8-4.1 1.9-8.5 3.1-13.1 2.5-9.2 5.6-19.1 9.7-29.3s8.6-19.6 13.1-28c2.3-4.1 4.5-8.1 6.7-11.7 1.1-1.8 2.1-3.5 3.2-5.2 1.1-1.6 2.1-3.2 3.1-4.7 2-3 3.9-5.6 5.6-7.9.9-1.1 1.6-2.2 2.4-3.2.8-.9 1.5-1.8 2.1-2.6 2.6-3.1 4.1-4.7 4.2-4.6s-1 2-3.2 5.3c-.6.8-1.2 1.7-1.9 2.7-.7 1-1.4 2.1-2.2 3.3-1.5 2.4-3.4 5-5.2 8.1-.9 1.5-1.9 3.1-2.9 4.7-1 1.7-2 3.4-3 5.2-2.1 3.6-4.2 7.6-6.4 11.7-4.3 8.4-8.7 17.7-12.7 27.8-4 10.1-7.2 19.9-9.8 28.9-1.2 4.5-2.4 8.8-3.3 12.9-.5 2-1 4-1.4 5.9-.4 1.9-.8 3.7-1.1 5.5-.8 3.5-1.2 6.7-1.8 9.4-.3 1.4-.5 2.7-.7 3.9-.2 1.2-.4 2.3-.5 3.3-.5 4.1-.9 6.3-1.2 6.3zM287.8 959.1c-.4-.2.9-4.3 4-10.6.8-1.6 1.6-3.3 2.6-5.1 1-1.8 2.1-3.7 3.3-5.7 2.4-3.9 5.3-8.2 8.5-12.4 3.3-4.2 6.6-8.1 9.8-11.4 1.6-1.6 3.2-3.2 4.7-4.6 1.5-1.4 2.9-2.7 4.3-3.8 5.3-4.5 9-6.8 9.3-6.5.6.8-12.7 11.7-25.5 28.3-12.9 16.6-20.1 32.2-21 31.8zM401.7 848.5c-.2.1-.5-.6-1.3-1.4-.7-.8-2.1-1.8-4-2.4-1.9-.6-4.3-.6-7.1-.3-1.4.1-3 .3-4.6.4-1.7 0-3.4-.1-5.1-.2-3.4-.4-6.5-1-9.4-1.5-2.9-.5-5.4-1.1-7.6-1.5-4.3-1-6.9-1.8-6.8-2.2.1-.4 2.8-.4 7.2 0 2.2.2 4.8.5 7.7.9 2.9.4 6.1.9 9.3 1.2 1.6.2 3.2.3 4.7.3s3-.1 4.5-.2c2.9-.1 5.9 0 8.1 1.1 2.2 1 3.6 2.6 4.2 3.8.5 1.2.4 2 .2 2zM398.7 882.7c-.3.4-3.1-1.3-8.1-2.7-2.5-.7-5.5-1.2-8.9-1.2-3.3-.1-7.1.7-11.5.7-4.4-.1-8.5-1.6-11.6-3.8-1.6-1.1-2.9-2.3-4-3.6-1.1-1.3-1.9-2.6-2.6-3.8-1.3-2.4-2.3-4.1-3.2-5.2-.9-1.1-1.5-1.6-1.4-1.8.1-.2 1 0 2.3.9 1.3.9 2.8 2.8 4.3 4.9.8 1.1 1.6 2.2 2.6 3.2 1 1.1 2.2 2 3.6 2.9 2.8 1.8 6.2 3 10 3.1 3.8.1 7.7-.6 11.5-.4 3.7.2 7 1 9.5 2.1 5.3 1.9 7.7 4.4 7.5 4.7zM417.9 868c-.4.2-1.6-1.5-3.9-4-2.2-2.4-5.6-5.5-10-7.8-2.2-1.2-4.4-2-6.4-2.6-2-.6-4-.9-5.8-1.4-1.7-.5-3.1-1.1-3.9-1.7-.8-.6-1.2-1.1-1-1.3.3-.4 2.1.5 5.4.7 1.6.2 3.7.2 6.1.7 2.3.5 4.8 1.3 7.2 2.6 4.9 2.6 8.4 6.3 10.3 9.3 1.9 3.1 2.4 5.3 2 5.5z" class="colorStroke000 svgStroke"></path><path stroke="#000" stroke-miterlimit="10" d="M415.1 867.5c.4 0 .7 1.7-.1 4.3-.1.3-.2.7-.4 1-.1.3-.3.7-.5 1-.3.7-.8 1.4-1.4 2.1-1.1 1.4-2.6 2.8-4.3 3.9-1.8 1.1-3.6 1.8-5.4 2.2-.9.1-1.7.3-2.5.3h-1.1c-.4 0-.7-.1-1.1-.1-2.7-.4-4-1.5-3.9-1.8.2-.5 1.7-.3 4-.5.3 0 .6-.1.9-.1.3 0 .6-.1 1-.2.7-.1 1.3-.3 2.1-.5 1.4-.5 2.9-1.1 4.4-2 1.4-.9 2.7-2 3.7-3.1.5-.6 1-1.1 1.4-1.6.2-.3.4-.5.6-.8.2-.3.3-.5.5-.8 1.1-1.9 1.6-3.4 2.1-3.3z" class="colorStroke000 svgStroke"></path><path stroke="#000" stroke-miterlimit="10" d="M400.7 879.7c-.8.6-3.9-2.7-8.6-5.3-4.6-2.7-9-3.7-8.9-4.7 0-.4 1.3-.7 3.2-.6 2 .2 4.6.9 7.3 2.4 2.6 1.5 4.6 3.4 5.8 5 1.2 1.7 1.6 2.9 1.2 3.2zM407.8 877.3c-.8.5-4.2-3.4-9.4-7.1-5.1-3.7-10-5.6-9.8-6.5.1-.4 1.5-.5 3.7.1 2.2.5 5.1 1.8 7.9 3.8 2.8 2 5 4.3 6.2 6.2 1.3 1.9 1.7 3.2 1.4 3.5zM411.4 871.3c-.8.5-3.8-3.2-8.3-6.8-4.5-3.7-8.7-5.9-8.4-6.8.2-.4 1.5-.4 3.4.3 2 .6 4.5 2 7 4s4.3 4.3 5.3 6c1 1.8 1.3 3.1 1 3.3zM423 927.5c-.1.4-4.8-.7-11.9-3.6-1.8-.7-3.7-1.5-5.7-2.5-2.1-.9-4.2-2-6.5-3.2-4.5-2.3-9.3-5.1-14.3-8.1-9.9-6.1-18.7-11.9-24.9-16.2-6.3-4.3-10.1-7-9.9-7.4.2-.4 4.5 1.6 11.1 5.4 6.6 3.8 15.5 9.3 25.4 15.4 4.9 3 9.7 5.8 14.1 8.2 2.2 1.2 4.3 2.4 6.2 3.4 2 1.1 3.8 2 5.5 2.8 6.8 3.5 11.1 5.3 10.9 5.8z" class="colorStroke000 svgStroke"></path><ellipse cx="430" cy="862.5" stroke="#000" stroke-miterlimit="10" rx="53.5" ry="1.6" transform="rotate(98.221 430.035 862.572)" class="colorStroke000 svgStroke"></ellipse><path stroke="#000" stroke-miterlimit="10" d="M589.9 758.7c.1.5-8.6 2.1-22.5 4.9-3.5.7-7.3 1.5-11.4 2.4-4.1.9-8.4 1.9-13 3-9.1 2.2-19.1 4.7-29.6 7.7-10.4 3-20.3 6-29.2 8.9-4.5 1.5-8.7 2.9-12.6 4.3-4 1.4-7.6 2.7-11 3.9-13.4 4.9-21.6 8.1-21.8 7.6-.1-.2 1.9-1.3 5.5-3 1.8-.9 4-1.9 6.6-3 2.6-1.1 5.6-2.4 8.9-3.8 3.3-1.4 6.9-2.8 10.9-4.3 3.9-1.5 8.1-3 12.6-4.6 8.9-3.1 18.8-6.3 29.3-9.2 10.5-2.9 20.6-5.4 29.8-7.5 4.6-1 9-1.9 13.1-2.7 4.1-.8 8-1.5 11.5-2 3.5-.6 6.7-1 9.5-1.4 2.8-.4 5.2-.7 7.2-.9 4-.4 6.2-.5 6.2-.3zM573.3 878.1c-.5-.1.9-6.3 3-16.2 2.1-9.9 4.9-23.6 7.5-38.9 2.6-15.2 4.4-29.1 5.7-39.2 1.3-10.1 2.1-16.3 2.5-16.3.4 0 .5 6.3-.2 16.5s-2.2 24.2-4.8 39.5c-2.6 15.3-5.8 29.1-8.5 38.9-2.6 9.9-4.7 15.8-5.2 15.7zM561.6 882.1c.1.4-7.5 3-19.8 6.9-12.3 3.9-29.3 9.3-48 15.5-18.7 6.2-35.6 11.9-47.8 16.1-12.2 4.1-19.8 6.6-20 6.2-.2-.4 7.2-3.6 19.2-8.3 12-4.7 28.8-10.8 47.6-17 18.8-6.2 35.9-11.2 48.4-14.6 12.4-3.5 20.3-5.2 20.4-4.8zM430.6 842.3c.3.8-6.3 4-15 6.2s-16.1 2.5-16.2 1.6c-.1-.9 6.9-2.6 15.4-4.8 8.5-2 15.5-3.8 15.8-3zM350.4 869c.2.9-2.2 2.2-5.3 3.2-3.1 1-5.8 1.3-6.2.5-.3-.8 1.9-2.5 5.2-3.6 3.3-1 6.1-.9 6.3-.1zM515.3 845.4c.1-.2 1.3.3 3.5.2 2.1-.2 5.2-1.4 7.7-4.2 2.4-2.8 4.2-7.5 3.7-12.4-.3-2.5-1.2-5-2.8-7-.8-1-1.8-1.8-3-2.3-1.2-.5-2.4-.8-3.8-.7-2.7.1-5.3 1.4-7.5 3.1-2.2 1.7-4.1 3.6-5.7 5.7-1.6 2.1-2.8 4.2-3.3 6.3-.5 2.1-.3 4.2.2 6 .5 1.8 1.3 3.4 2.2 4.6.9 1.2 1.9 2.1 2.7 2.8 1.7 1.3 3 1.8 2.9 2 0 .2-1.4.2-3.6-1-2.1-1.1-5-3.6-6.5-7.8-.7-2.1-1.1-4.6-.6-7.3.5-2.7 1.9-5.2 3.5-7.5s3.7-4.6 6.2-6.5c1.2-1 2.6-1.8 4.2-2.5 1.5-.7 3.2-1.2 5.1-1.3 1.8-.1 3.7.3 5.3 1 1.6.8 3 1.9 4.1 3.2 2.1 2.6 3.1 5.7 3.4 8.7.2 3-.2 5.8-1.1 8.2-.9 2.4-2.2 4.5-3.8 6.1-3.2 3.2-6.9 4.2-9.4 3.9-2.7-.1-3.7-1.1-3.6-1.3zM357.9 1049.8c-.2.4-7.1-2.7-18-8.1s-25.9-13-42.4-21.6c-8.2-4.3-16.1-8.4-23.3-11.8-7.2-3.5-13.9-6.3-19.5-8.4-11.3-4.2-18.8-5.6-18.7-6.1 0-.2 1.9-.1 5.3.5 3.4.5 8.2 1.7 14.1 3.5s12.7 4.5 20.1 7.8c7.4 3.3 15.3 7.4 23.5 11.7 16.5 8.6 31.3 16.6 42 22.5 10.6 5.7 17.1 9.6 16.9 10zM381.6 1033.9c-.2.3-7-3.7-17.3-11.2-10.3-7.5-24-18.6-38-32.1-7-6.7-13.5-13.2-20.1-18.2-3.3-2.5-6.5-4.7-9.7-6.4-3.2-1.8-6.3-3.1-9.3-4.2-5.9-2-10.9-2.6-14.4-2.7-3.5-.1-5.5.2-5.5-.1 0-.2 1.9-.9 5.5-1.2 3.6-.3 8.9-.1 15.2 1.7 3.1.9 6.4 2.2 9.8 4 3.4 1.7 6.8 3.9 10.3 6.4 6.9 5 13.6 11.5 20.5 18.3 13.9 13.4 27.3 24.7 37.1 32.6 9.9 8 16.2 12.7 15.9 13.1zM403.6 1059.9c-.9.3-3.7-6.9-9.5-14.3-5.6-7.5-11.9-12-11.4-12.9.2-.4 2.1.3 4.8 2.1 1.3.9 2.9 2.1 4.4 3.6 1.6 1.5 3.2 3.2 4.7 5.2s2.8 4 3.8 5.9c1 1.9 1.8 3.7 2.3 5.2 1.1 3 1.3 5 .9 5.2zM343.1 1108.6c-.4 0-.7-3.4-.3-8.8.4-5.4 1.4-12.9 3.5-20.9 2.1-8 4.8-15.1 7.1-20s4.1-7.8 4.5-7.6c.9.4-4.4 12.6-8.4 28.4-4.2 15.8-5.4 29-6.4 28.9zM397.6 1064.2c.6.7-9 10.6-20.2 23.2-11.3 12.6-20 23.3-20.8 22.7-.7-.5 6.9-12.1 18.4-24.9 11.3-12.7 22-21.6 22.6-21zM658.1 988.4c-.1.2-3-.9-8.1-2.9-5.2-1.8-12.7-4.3-22.3-6.3-9.6-2-21.2-3.6-34.1-5.2-12.9-1.7-27.2-3.4-42-7.2-.9-.2-1.8-.5-2.8-.7-.9-.3-1.8-.6-2.7-.8-1.8-.6-3.6-1.1-5.3-1.7-1.7-.7-3.5-1.3-5.2-1.9-.9-.3-1.7-.6-2.5-1s-1.7-.7-2.5-1.1c-6.6-2.9-12.6-6.2-18.3-9.4-5.7-3.2-11.1-6.2-16.2-8.8-5.1-2.6-10-4.8-14.6-6.4-9.2-3.4-17-4.5-22.5-4.7-5.5-.2-8.5.4-8.5.1 0-.1.7-.3 2.1-.6 1.4-.3 3.6-.6 6.4-.7 5.6-.2 13.8.6 23.2 3.8 4.7 1.5 9.8 3.7 15 6.2 5.3 2.6 10.7 5.5 16.4 8.6 5.7 3.1 11.7 6.3 18.1 9.1.8.3 1.6.7 2.4 1 .8.3 1.7.6 2.5.9 1.7.6 3.4 1.2 5 1.9 1.7.5 3.5 1.1 5.2 1.6.9.3 1.8.5 2.6.8.9.2 1.8.5 2.7.7 14.4 3.7 28.7 5.5 41.6 7.4 12.9 1.8 24.6 3.6 34.2 6 9.7 2.3 17.2 5.2 22.3 7.3 5.3 2.3 8 3.8 7.9 4zM655.7 963.2c-.2.4-7.7-3.2-19.7-9.3s-28.4-14.8-46.4-24.5c-9-4.9-17.6-9.5-25.4-13.8-7.8-4.3-14.7-8.2-20.8-10.9-3-1.4-5.8-2.4-8.3-3.3-2.5-.8-4.7-1.4-6.5-1.8-3.6-.8-5.7-1-5.7-1.3 0-.2 2.1-.4 5.9.1 1.9.2 4.2.6 6.8 1.3 2.6.7 5.6 1.6 8.7 2.9 6.3 2.5 13.5 6.2 21.3 10.3 7.9 4.1 16.5 8.7 25.5 13.6 18 9.7 34.3 18.7 46 25.3 11.7 6.7 18.8 11 18.6 11.4zM705.4 925.9c.2.4-3 2-8.2 4.2-5.1 2.3-12.3 5.3-19.5 9.6-7.3 4.3-13 9.3-16.9 13.3-3.9 4-6.1 6.7-6.5 6.4-.3-.2 1.2-3.5 4.7-8s9.4-10.1 16.9-14.6c7.5-4.5 15-7.2 20.4-9 5.6-1.6 9-2.3 9.1-1.9zM669.7 990.7c-.2-.1.3-1 1.4-2.5 1.1-1.4 2.9-3.3 5.2-5.4 4.5-4.3 10.3-10.6 15.5-18.5 2.6-4 4.7-7.9 6.5-11.6 1.8-3.7 3.1-7.1 4.2-10.1 2.1-5.9 3.1-9.6 3.5-9.5.4.1.2 4-1.3 10.2-.8 3.1-2 6.7-3.6 10.6-1.7 3.9-3.8 8-6.5 12.1-5.3 8.2-11.7 14.6-16.7 18.5-2.5 2-4.5 3.5-5.8 4.6-1.4 1.2-2.2 1.8-2.4 1.6zM364.6 895.1c-.5.7-7.3-2.9-14.8-8.5-7.6-5.6-12.9-11.1-12.4-11.8.6-.7 6.8 3.6 14.3 9.2 7.5 5.6 13.4 10.4 12.9 11.1zM299.2 936.6c-.4.3-2.7-2.6-7.7-5.5-2.5-1.5-5.6-3-9.2-4.5-3.6-1.6-7.5-3.3-11.6-5-4.1-1.7-8.1-3-11.8-4-3.7-.9-7.1-1.4-10-1.6-5.8-.3-9.3.6-9.5.1-.1-.2.8-.6 2.4-1.2.8-.2 1.8-.5 3-.7 1.2-.2 2.6-.4 4.1-.4 3.1-.1 6.7.1 10.6 1 3.9.8 8.1 2.2 12.4 3.9 4.2 1.7 8.2 3.6 11.7 5.3 3.5 1.7 6.7 3.5 9.2 5.3 2.5 1.8 4.2 3.6 5.2 5 1 1.3 1.3 2.2 1.2 2.3zM298.9 918.1c-.3.3-2.6-1.3-6.2-3.8-.9-.6-1.9-1.3-3-2s-2.3-1.4-3.5-2.1c-2.5-1.4-5.4-2.9-8.5-4.2-3.1-1.3-6.1-2.4-8.9-3.2-1.4-.4-2.7-.8-4-1.1-1.3-.3-2.4-.6-3.5-.8-4.3-1-7.1-1.4-7.1-1.9 0-.4 2.8-.8 7.4-.4 1.1.1 2.4.2 3.7.5 1.3.2 2.7.5 4.2.9 2.9.7 6.1 1.8 9.4 3.1 3.2 1.4 6.2 3 8.7 4.6 1.3.8 2.5 1.6 3.5 2.5 1.1.8 2 1.6 2.9 2.4 3.5 2.9 5.2 5.3 4.9 5.5z" class="colorStroke000 svgStroke"></path><path stroke="#000" stroke-miterlimit="10" d="M371.2 1028.3c0 .2-.5.3-1.2.6s-1.6.9-2.3 2c-.3.6-.6 1.2-.8 1.9-.1.7-.1 1.5 0 2.4.1.9.4 1.8.8 2.8.1.2.2.5.3.7l.2.6.3.7c.4.9.9 1.9 1.4 2.9-.7.2-1.3.3-2 .5-.5.1-1.1.3-1.6.4l-1.2.3c-.6.2-1.1.3-1.7.5-1.1.4-2 .8-2.9 1.3-.9.5-1.5 1-2.1 1.6-.6.6-1 1.3-1.4 1.9-.7 1.3-.8 2.5-.8 3.3 0 .8.1 1.4-.1 1.5-.2.1-.7-.2-1.1-1.2-.4-1-.7-2.6-.1-4.4.3-.9.7-1.9 1.4-2.8.7-.9 1.6-1.8 2.6-2.5s2.2-1.3 3.4-1.7l1.8-.6c.3-.1.6-.2.8-.2l.3-.1c-.1-.1-.1-.3-.2-.4l-.1-.3-.3-.9c-.4-1.2-.7-2.3-.8-3.5-.1-1.2 0-2.4.4-3.4.4-1.1.9-1.9 1.6-2.6 1.2-1.4 2.8-1.9 3.8-1.9 1.2 0 1.6.4 1.6.6zM338.3 1003.8c.2.5-1.4 1.3-3.7 2.9-.6.4-1.2.8-1.8 1.4-.7.5-1.3 1.1-2 1.7-1.3 1.3-2.7 2.7-3.9 4.4-1.2 1.7-2.2 3.4-3.1 5-.4.8-.8 1.6-1 2.4-.3.7-.6 1.5-.8 2.1-.9 2.6-1.2 4.4-1.7 4.4-.4 0-.9-1.9-.5-4.9.1-.8.2-1.6.5-2.5.2-.9.5-1.8.9-2.7.8-1.9 1.8-3.9 3.2-5.8 1.4-1.9 3-3.5 4.6-4.7.8-.6 1.6-1.2 2.4-1.6.8-.5 1.5-.8 2.2-1.2 2.7-1.2 4.6-1.3 4.7-.9zM346.8 1009.9c.3.4-.9 1.6-2.9 3.5-2 1.8-4.8 4.2-7.6 7-1.4 1.4-2.6 2.8-3.6 4.1-1 1.4-1.9 2.6-2.5 3.7-1.3 2.2-1.9 3.8-2.4 3.7-.4-.1-.6-1.9.3-4.6.4-1.4 1.2-2.9 2.1-4.5 1-1.6 2.3-3.2 3.8-4.7 3-3 6.2-5.2 8.5-6.5 2.5-1.5 4.1-2 4.3-1.7zM649.4 984.5c-.2 0-.5-.4-.7-1.4-.2-1-.1-2.5.7-4.2.8-1.6 2.3-3.5 4.8-4.3.6-.2 1.2-.3 1.7-.5.5-.1.9-.3 1.1-.4.1-.1.2-.2.2-.4s0-.7-.1-1.1c-.2-.8-.7-1.7-1.3-2.6-.6-.9-1.3-1.7-2-2.7-1.3-1.9-2.2-4.3-1.4-6.5.8-2 2.5-2.8 3.6-2.8 1.2 0 1.6.7 1.5.8-.1.2-.6.1-1.3.4-.6.3-1.4 1.1-1.6 2.2-.1.5 0 1.1.3 1.8s.7 1.4 1.4 2.2c.6.8 1.4 1.6 2.1 2.6.7 1 1.5 2.2 1.9 3.7.2.8.3 1.5.1 2.5-.2 1-.9 1.9-1.8 2.4-.8.4-1.5.6-2.1.7-.6.1-1.1.2-1.5.3-1.6.4-2.9 1.5-3.7 2.7-.8 1.1-1.2 2.2-1.5 3 0 1.1-.1 1.6-.4 1.6zM597.9 971.3c-.4.1-1.4-1.5-2-4.6-.1-.8-.2-1.6-.3-2.5-.1-.9 0-1.9.1-2.9.2-2 .7-4.3 1.6-6.5.9-2.2 2.1-4.2 3.3-5.8.7-.8 1.3-1.6 1.9-2.2.6-.7 1.3-1.2 1.9-1.7 2.5-1.9 4.4-2.3 4.6-2 .2.4-1.2 1.6-3 3.7-.5.5-1 1.1-1.5 1.8-.5.6-1 1.4-1.5 2.1-1 1.5-1.9 3.3-2.7 5.3-.8 2-1.3 3.9-1.6 5.7-.1.9-.3 1.8-.4 2.6-.1.8-.1 1.6-.2 2.3.1 2.7.3 4.5-.2 4.7zM608.2 972c-.4.1-1.3-1.3-1.9-3.9-.3-1.3-.4-2.9-.4-4.7.1-1.8.4-3.7.9-5.7.6-2 1.4-3.7 2.3-5.3.9-1.5 1.9-2.8 2.9-3.7 1.9-1.9 3.4-2.6 3.7-2.3.3.4-.6 1.6-1.9 3.7-.6 1-1.3 2.3-2 3.7-.7 1.4-1.3 3-1.8 4.8-.5 1.7-.8 3.4-1.1 5-.2 1.6-.3 3-.3 4.2 0 2.5.1 4.1-.4 4.2zM302.6 763.1c.2.4-1.2 1.9-4 4-2.8 2-7 4.5-12.4 5.6-2.7.5-5.3.7-7.7.4-2.4-.3-4.4-.9-6-1.6-3.3-1.4-4.8-3.1-4.5-3.4.3-.4 2.2.5 5.3 1.2 1.6.4 3.4.7 5.5.8 2.1.1 4.4-.1 6.7-.6 4.7-1 8.8-3 11.8-4.4 3.1-1.5 5.1-2.4 5.3-2zM298.8 756.7c.2.4-1 1.7-3.4 3.1-1.2.7-2.8 1.5-4.5 2.1-1.8.6-3.8 1.2-6 1.5-2.2.3-4.2.4-6.1.3-1.9-.1-3.6-.3-5-.7-2.8-.7-4.3-1.6-4.2-2 .2-.9 6.9.4 14.8-.9 7.9-1 13.9-4.2 14.4-3.4zM429.3 728.4c-.2.1-.7-.3-1.1-1.4-.5-1-.8-2.7-.6-4.8.1-2 .7-4.3 1.5-6.7.8-2.4 1.9-5 3.2-7.7 2.7-5.3 6.1-9.5 8.9-12.1 2.8-2.7 4.8-3.9 5.1-3.6.7.7-5.9 7.3-11.1 17.3-1.3 2.5-2.4 4.9-3.3 7.2-.9 2.3-1.7 4.3-2.1 6-.9 3.4-.1 5.6-.5 5.8zM438.7 737.6c-.4 0-.8-2.1-.6-5.6.1-1.7.3-3.8.8-6s1.1-4.7 2.1-7.2c.9-2.5 2-4.8 3.2-6.8 1.1-2 2.3-3.7 3.4-5.1 2.1-2.7 3.8-4.1 4.2-3.8.7.6-4.2 7.3-7.6 16.8-3.8 9.4-4.5 17.7-5.5 17.7zM385.9 807.2c.2.3-1.7 2.3-5.5 4.6-3.7 2.4-9.3 5.1-15.8 6.9-6.5 1.8-12.7 2.4-17.1 2.3-1.1 0-2.1-.1-3-.2-.4 0-.8-.1-1.2-.1l-1.2-.3c-.7-.3-1.1-.8-1.2-1.2-.1-.4.1-.6.2-.7.1 0 .1.1.3.3.2.2.5.3 1 .4h.8c.4 0 .8-.1 1.2-.1.9-.1 1.8-.2 2.9-.3 4.2-.5 10.1-1.4 16.3-3.1 12.7-3.5 21.8-9.3 22.3-8.5z" class="colorStroke000 svgStroke"></path><ellipse cx="268.5" cy="890.7" stroke="#000" stroke-miterlimit="10" rx="4.2" ry="1.6" transform="rotate(-62.82 268.51 890.657)" class="colorStroke000 svgStroke"></ellipse><ellipse cx="281.9" cy="867.2" stroke="#000" stroke-miterlimit="10" rx="4.7" ry="1.6" transform="rotate(-58.969 281.895 867.142)" class="colorStroke000 svgStroke"></ellipse><ellipse cx="293.9" cy="850.5" stroke="#000" stroke-miterlimit="10" rx="5.1" ry="1.6" transform="rotate(-53.88 293.91 850.46)" class="colorStroke000 svgStroke"></ellipse><path stroke="#000" stroke-miterlimit="10" d="M393.7 815.1c.2.1 0 .8-.7 1.8s-1.9 2.4-3.7 3.8c-1.8 1.4-4.1 2.7-6.8 3.8-2.7 1.1-5.7 2.1-8.9 2.9-6.4 1.6-12.4 2.3-16.7 2.3-4.3.1-7-.4-7-.8 0-.9 10.5-1.5 22.9-4.7 3.1-.8 6.1-1.6 8.6-2.5 2.6-.9 4.8-1.9 6.6-2.9 3.6-2 5.3-4 5.7-3.7zM432.7 837.6c-.6.7-5-1.7-10.2-4.9-5.3-3.1-9.6-5.8-9.2-6.6.3-.8 5.4.6 10.9 3.8 5.4 3.3 9.1 7 8.5 7.7zM322 640.7c-.8-.5 1.5-5.3 2.8-11.6 1.3-6.3 1.1-11.6 2-11.7.4-.1 1.1 1.2 1.4 3.5.4 2.3.4 5.5-.3 8.9-.7 3.4-2 6.4-3.3 8.3-1.1 1.9-2.2 2.8-2.6 2.6zM333.1 758.3c-.1.4-2.2.6-5.4-.3-.8-.2-1.7-.5-2.6-.9-.9-.4-1.9-.9-2.9-1.4-1.9-1.1-3.9-2.6-5.8-4.4-1.8-1.8-3.3-3.8-4.5-5.8-.5-1-1.1-1.9-1.4-2.8-.4-.9-.7-1.8-.9-2.6-.9-3.3-.8-5.4-.4-5.4.5-.1 1.1 1.8 2.5 4.6.4.7.7 1.5 1.2 2.2.4.8 1 1.6 1.5 2.4 1.2 1.7 2.6 3.4 4.2 5 1.7 1.6 3.4 3 5.1 4.2.9.5 1.7 1.1 2.5 1.5.8.5 1.5.8 2.2 1.2 2.9 1.4 4.8 2 4.7 2.5zM482.8 717c-.8.5-4.8-4.7-10.4-10.4-5.5-5.8-10.6-10-10.1-10.8.3-.4 1.9.2 4.2 1.7 2.3 1.5 5.3 3.8 8.2 6.8 2.9 3 5.1 6.1 6.5 8.4 1.4 2.4 2 4 1.6 4.3zM266.8 816.6c-.7.5-5.8-6.3-9.6-16s-4.7-18.1-3.9-18.3c.9-.2 3.2 7.7 6.9 17.1 3.7 9.4 7.4 16.8 6.6 17.2zM218.7 957c.7.6-.8 3.6-1.8 7.5-1.1 3.9-1.4 7.3-2.3 7.4-.4 0-1-.8-1.2-2.3-.3-1.5-.2-3.7.4-5.9.6-2.3 1.7-4.1 2.7-5.3 1-1.2 1.9-1.6 2.2-1.4z" class="colorStroke000 svgStroke"></path><ellipse cx="595.8" cy="726.1" stroke="#000" stroke-miterlimit="10" rx="15.9" ry="1.6" transform="rotate(-55.278 595.765 726.089)" class="colorStroke000 svgStroke"></ellipse><path stroke="#000" stroke-miterlimit="10" d="M624.2 729.8c.4.8-4.1 3.6-9.7 6.7-5.7 3-10.5 5.2-10.9 4.4-.5-.8 3.6-4.2 9.4-7.3 5.7-3.1 10.9-4.6 11.2-3.8zM658.7 757.1c.2.9-10.1 3.9-23.1 6.3-13 2.4-23.7 3.4-23.8 2.5-.1-.9 10.3-3.3 23.2-5.7 12.9-2.4 23.5-4 23.7-3.1zM405.8 906.6c-.5.7-9-4.2-19.1-11-5-3.4-9.4-6.6-12.6-9.1-.8-.6-1.5-1.2-2.1-1.7-.3-.3-.6-.5-.8-.7l-.2-.2-.2-.2c-.1-.2-.2-.3-.3-.5-.3-.6-.3-1.2-.1-1.5.2-.3.6-.2.7-.2.1 0 0 0-.1.2 0 .2.2.6.5.8.1.1.2.1.2.2 0 0 .1 0 .1.1l.2.1c.3.2.6.3 1 .5.7.4 1.5.8 2.3 1.3 3.4 2 8.1 4.9 13.1 8.3 10.2 6.7 17.9 12.9 17.4 13.6zM395.9 883.2c.6.7-1.4 3.2-4.9 4.7-3.4 1.6-6.6 1.4-6.8.6-.2-.9 2.4-2.1 5.4-3.5 3.1-1.4 5.7-2.5 6.3-1.8zM424.2 885.5c.5.7-4.1 5-10.7 8.9-6.6 3.9-12.6 6-12.9 5.2-.4-.8 4.8-4.1 11.3-8 6.4-3.9 11.8-6.8 12.3-6.1z" class="colorStroke000 svgStroke"></path><ellipse cx="425.2" cy="860.7" stroke="#000" stroke-miterlimit="10" rx="7.2" ry="1.6" transform="rotate(-26.539 425.202 860.749)" class="colorStroke000 svgStroke"></ellipse><path stroke="#000" stroke-miterlimit="10" d="M431.5 867.5c.4.8-1.8 2.8-5.1 4-3.3 1.2-6.3 1.1-6.5.2-.2-.9 2.3-2.1 5.4-3.3 3-1.1 5.7-1.7 6.2-.9z" class="colorStroke000 svgStroke"></path><path d="M407.7 490c2.9 4.7 6.2 9.1 8.8 14 2.8 5.3 4.5 10.8 6.6 16.4.6 1.5 2.6 1.2 2.8-.4.9-11.8-6.7-25.8-17.6-30.6-.4-.1-.8.2-.6.6z" fill="#000000" class="color000 svgShape"></path></g></svg></g></svg>